<svg width="270" height="261" viewBox="0 0 270 261" fill="none" xmlns="http://www.w3.org/2000/svg">
  <!--g id="tree">
    <path d="M38.7001 125.1C44.9462 133.416 50.1797 142.446 54.2901 152C47.1262 144.564 40.4205 136.699 34.2101 128.45C28.0085 120.172 22.3083 111.53 17.1401 102.57C25.1936 109.2 32.4309 116.763 38.7001 125.1" fill="#36E69A"/>
    <path d="M40.46 145.49C48.8583 151.376 56.5139 158.256 63.26 165.98C54.3277 161.287 45.6975 156.04 37.42 150.27C29.2248 144.54 21.4024 138.294 14 131.57C23.3666 135.087 32.2558 139.764 40.46 145.49" fill="#36E69A"/>
    <path d="M53.1802 136.58C55.9476 146.57 59.3137 156.384 63.2602 165.97C63.0197 155.65 61.5083 145.4 58.7602 135.45C55.9067 125.198 51.859 115.317 46.7002 106.01C48.2428 116.32 50.4034 126.529 53.1702 136.58" fill="#36E69A"/>
    <path d="M66.84 144.62C66.8972 154.876 67.5852 165.118 68.9 175.29C71.418 165.472 72.6814 155.375 72.66 145.24C72.5951 134.664 71.2521 124.134 68.66 113.88C67.3739 124.075 66.7493 134.344 66.79 144.62" fill="#25B774"/>
    <path d="M42.5999 160.66C51.9341 164.436 60.7646 169.353 68.8899 175.3C59.312 172.853 49.9051 169.779 40.7299 166.1C31.6773 162.439 22.8692 158.2 14.3599 153.41C24.0507 154.616 33.5456 157.066 42.6099 160.7" fill="#25B774"/>
    <path d="M47.5799 174.93C57.2005 177.477 66.4606 181.23 75.1399 186.1C65.4284 184.903 55.8118 183.032 46.3599 180.5C37.0256 177.993 27.866 174.877 18.9399 171.17C28.6095 171.193 38.2368 172.447 47.5899 174.9" fill="#25B774"/>
    <path d="M78.2299 155.89C76.5528 165.897 75.5173 176.001 75.1299 186.14C79.2761 177.042 82.2402 167.451 83.9499 157.6C85.6998 147.301 86.1767 136.825 85.3699 126.41C82.2919 136.055 79.9026 145.906 78.2199 155.89" fill="#25B774"/>
    <path d="M58.3799 193.1C67.8868 196.057 76.9821 200.203 85.4499 205.44C75.7948 203.837 66.262 201.568 56.9199 198.65C47.701 195.761 38.6816 192.27 29.9199 188.2C39.5759 188.621 49.1392 190.267 58.3799 193.1Z" fill="#068E4D"/>
    <path d="M89.7902 175.39C87.6994 185.32 86.2498 195.374 85.4502 205.49C89.9741 196.57 93.3348 187.106 95.4502 177.33C97.6248 167.114 98.535 156.669 98.1602 146.23C94.6886 155.74 91.895 165.485 89.8002 175.39" fill="#068E4D"/>
    <path d="M68.4202 211.79C77.799 215.144 86.7163 219.67 94.9602 225.26C85.3779 223.243 75.9457 220.57 66.7302 217.26C57.6374 213.986 48.7685 210.121 40.1802 205.69C49.8135 206.509 59.3033 208.552 68.4202 211.77" fill="#068E4D"/>
    <path d="M100.52 195.36C98.0192 205.196 96.1553 215.184 94.9399 225.26C99.8222 216.529 103.569 207.21 106.09 197.53C108.693 187.4 110.036 176.989 110.09 166.53C106.222 175.901 103.024 185.536 100.52 195.36" fill="#068E4D"/>
    <path d="M52.1401 148.77C75.3552 183.189 94.4397 220.221 109 259.1" stroke="#36E69A" stroke-width="2" stroke-linecap="round" stroke-linejoin="round"/>
    <animateTransform attributeName="transform" type="rotate" values="5 110 259; -5 110 259; 3 110 259; -3 110 259; 1 110 259; -1 110 259" begin="0s" dur="500ms" additive="sum" repeatCount="1" calcMode="paced" keyTimes="0; 0.5; 0.65; 0.75; 0.82; 1" />
  </g-->
  <g id="from">
    <g id="cabin" transform="translate(132 151)">
      <path d="M4.08 29.97H52.44C55.5031 29.968 58.4712 28.9063 60.8407 26.9651C63.2102 25.024 64.8352 22.3228 65.44 19.32L69.18 1H1V26.89C1.00264 27.7061 1.32799 28.4879 1.90503 29.065C2.48207 29.642 3.26395 29.9674 4.08 29.97Z" stroke="white" stroke-width="2" stroke-linecap="round" stroke-linejoin="round"/>
      <path d="M64.4302 22.38H55.2102C53.0114 22.3721 50.9055 21.4931 49.3535 19.9355C47.8016 18.3779 46.9302 16.2688 46.9302 14.07V1" stroke="white" stroke-width="2" stroke-miterlimit="10" stroke-linecap="round"/>
      <path d="M32.8902 12.5698H30.8401C29.9286 12.5751 29.0562 12.9409 28.4136 13.5873C27.7709 14.2338 27.4101 15.1083 27.4102 16.0198V18.9398C27.4101 19.8514 27.7709 20.7259 28.4136 21.3723C29.0562 22.0187 29.9286 22.3845 30.8401 22.3898H32.8902C33.8017 22.3845 34.6741 22.0187 35.3168 21.3723C35.9594 20.7259 36.3202 19.8514 36.3201 18.9398V16.0198C36.3215 15.5681 36.2338 15.1205 36.0621 14.7026C35.8905 14.2848 35.6382 13.9048 35.3197 13.5844C35.0012 13.2641 34.6227 13.0096 34.2058 12.8355C33.789 12.6614 33.3419 12.5711 32.8902 12.5698Z" stroke="white" stroke-width="2" stroke-linecap="round" stroke-linejoin="round">
        <animate attributeName="opacity" from="1" to="0" begin="2.6s" dur="1ms" fill="freeze"/>
      </path>
      <path d="M14.2803 12.5698H12.2303C11.3188 12.5751 10.4464 12.9409 9.8037 13.5873C9.16101 14.2338 8.80028 15.1083 8.80029 16.0198V18.9398C8.80028 19.8514 9.16101 20.7259 9.8037 21.3723C10.4464 22.0187 11.3188 22.3845 12.2303 22.3898H14.2803C15.1918 22.3845 16.0642 22.0187 16.7069 21.3723C17.3496 20.7259 17.7103 19.8514 17.7103 18.9398V16.0198C17.7103 15.1083 17.3496 14.2338 16.7069 13.5873C16.0642 12.9409 15.1918 12.5751 14.2803 12.5698Z" stroke="white" stroke-width="2" stroke-linecap="round" stroke-linejoin="round"/>
      <animateTransform attributeName="transform" type="skewX" keyTimes="0; 0.25; 0.5; 0.75; 1" dur="1.5s" repeatCount="indefinite" values="-2; 0; 2; 0; -2" additive="sum" calcMode="spline" keySplines="0.11 0 0.5 0; 0.5 1 0.89 1; 0.11 0 0.5 0; 0.5, 1, 0.89, 1"/>
      <animateTransform attributeName="transform" type="scale" keyTimes="0; 0.25; 0.5; 0.75; 1" dur="1.5s" repeatCount="indefinite" values="1, 0.9; 1, 1; 1, 0.9; 1, 1; 1, 0.9" additive="sum" calcMode="spline" keySplines="0.11 0 0.5 0; 0.5 1 0.89 1; 0.11 0 0.5 0; 0.5, 1, 0.89, 1"/>
    </g>

    <path id="dirigable-bg" d="M164.23 157.62C207.61 157.62 239.09 142.07 239.09 120.62C239.09 99.1701 207.61 83.6201 164.23 83.6201C136.29 83.6201 108.87 97.1501 90.7699 108.49C88.7226 109.778 87.0353 111.564 85.8659 113.681C84.6964 115.798 84.083 118.177 84.083 120.595C84.083 123.014 84.6964 125.393 85.8659 127.51C87.0353 129.627 88.7226 131.413 90.7699 132.7C108.86 144.03 136.29 157.57 164.23 157.57" fill="#068E4D"/>
    <path id="dirigable-border" d="M164.23 157.62C207.61 157.62 239.09 142.07 239.09 120.62C239.09 99.1701 207.61 83.6201 164.23 83.6201C136.29 83.6201 108.87 97.1501 90.7699 108.49C88.7226 109.778 87.0353 111.564 85.8659 113.681C84.6964 115.798 84.083 118.177 84.083 120.595C84.083 123.014 84.6964 125.393 85.8659 127.51C87.0353 129.627 88.7226 131.413 90.7699 132.7C108.86 144.08 136.29 157.62 164.23 157.62Z" stroke="white" stroke-width="2"/>
    <path id="dirigable-highlight" d="M238 120.5C238 120.5 85.0312 120.999 85 120.5C84.5 112.5 92 108.5 104 102C116 95.5 141.351 84.1847 165 84.5C207.522 85.067 238 100 238 120.5Z" fill="#36E69A"/>
    <path id="dirigable-middle" d="M238 121C238 129.284 203.75 136 161.5 136C119.25 136 85 129.284 85 121C85 112.716 119.25 106 161.5 106C203.75 106 238 112.716 238 121Z" fill="#25B774">
      <animate attributeName="d" values="M238 121C238 124.284 203.75 131 161.5 131C119.25 131 85 124.284 85 121C85 112.716 119.25 101 161.5 101C203.75 101 238 112.716 238 121Z; M238 121C238 134.284 203.75 141 161.5 141C119.25 141 85 134.284 85 121C85 117.716 119.25 111 161.5 111C203.75 111 238 117.716 238 121Z; M238 121C238 124.284 203.75 131 161.5 131C119.25 131 85 124.284 85 121C85 112.716 119.25 101 161.5 101C203.75 101 238 112.716 238 121Z" begin="0s" dur="1.5s" repeatCount="indefinite" calcMode="spline" keySplines="0.65 0 0.35 1; 0.65 0 0.35 1" />
    </path>
    <g id="tail-back">
      <path d="M82.46 103.88H91.62C92.0529 103.88 92.4815 103.966 92.8813 104.132C93.2811 104.297 93.6443 104.541 93.9499 104.847C94.2555 105.154 94.4977 105.518 94.6624 105.918C94.8272 106.318 94.9113 106.747 94.91 107.18V112.89C94.9113 113.323 94.8272 113.752 94.6624 114.152C94.4977 114.553 94.2555 114.916 93.9499 115.223C93.6443 115.53 93.2811 115.773 92.8813 115.939C92.4815 116.105 92.0529 116.19 91.62 116.19H74.8C74.4499 116.19 74.1141 116.051 73.8666 115.803C73.6191 115.556 73.48 115.22 73.48 114.87V112.87C73.48 110.483 74.4282 108.194 76.116 106.506C77.8038 104.818 80.093 103.87 82.48 103.87" fill="#068E4D"/>
      <path d="M82.46 103.88H91.62C92.0529 103.88 92.4815 103.965 92.8813 104.131C93.2811 104.297 93.6443 104.54 93.9499 104.847C94.2555 105.154 94.4977 105.517 94.6624 105.918C94.8272 106.318 94.9113 106.747 94.91 107.18V112.89C94.9113 113.323 94.8272 113.752 94.6624 114.152C94.4977 114.552 94.2555 114.916 93.9499 115.223C93.6443 115.529 93.2811 115.773 92.8813 115.938C92.4815 116.104 92.0529 116.19 91.62 116.19H74.8C74.4499 116.19 74.1141 116.051 73.8666 115.803C73.6191 115.556 73.48 115.22 73.48 114.87V112.87C73.4826 110.488 74.4293 108.205 76.1125 106.519C77.7957 104.834 80.0782 103.885 82.46 103.88V103.88Z" stroke="white" stroke-width="2" stroke-linecap="round" stroke-linejoin="round"/>
      <path d="M82.46 137.93H91.62C92.0529 137.93 92.4815 137.845 92.8813 137.679C93.2811 137.513 93.6443 137.27 93.9499 136.963C94.2555 136.656 94.4977 136.293 94.6624 135.892C94.8272 135.492 94.9113 135.063 94.91 134.63V128.92C94.9113 128.487 94.8272 128.058 94.6624 127.658C94.4977 127.258 94.2555 126.894 93.9499 126.587C93.6443 126.281 93.2811 126.037 92.8813 125.872C92.4815 125.706 92.0529 125.62 91.62 125.62H74.8C74.4499 125.62 74.1141 125.759 73.8666 126.007C73.6191 126.254 73.48 126.59 73.48 126.94V128.94C73.48 131.327 74.4282 133.616 76.116 135.304C77.8038 136.992 80.093 137.94 82.48 137.94" fill="#068E4D"/>
      <path d="M82.46 137.93H91.62C92.0529 137.93 92.4815 137.845 92.8813 137.679C93.2811 137.513 93.6443 137.27 93.9499 136.963C94.2555 136.656 94.4977 136.293 94.6624 135.892C94.8272 135.492 94.9113 135.063 94.91 134.63V128.92C94.9113 128.487 94.8272 128.058 94.6624 127.658C94.4977 127.258 94.2555 126.894 93.9499 126.587C93.6443 126.281 93.2811 126.037 92.8813 125.872C92.4815 125.706 92.0529 125.62 91.62 125.62H74.8C74.4499 125.62 74.1141 125.759 73.8666 126.007C73.6191 126.254 73.48 126.59 73.48 126.94V128.94C73.4826 131.322 74.4293 133.605 76.1125 135.291C77.7957 136.976 80.0782 137.925 82.46 137.93V137.93Z" stroke="white" stroke-width="2" stroke-linecap="round" stroke-linejoin="round"/>
      <animateMotion values="0,2.5; 0,-2.5; 0,2.5; 0,-2.5; 0,2.5" calcMode="spline" begin="0s" dur="3s" fill="freeze" keySplines="0.65 0 0.35 1; 0.65 0 0.35 1; 0.65 0 0.35 1; 0.65 0 0.35 1" repeatCount="indefinite"/>
    </g>
    <g id="tail-front">
      <path d="M82.46 103.88H91.62C92.0529 103.88 92.4815 103.966 92.8813 104.132C93.2811 104.297 93.6443 104.541 93.9499 104.847C94.2555 105.154 94.4977 105.518 94.6624 105.918C94.8272 106.318 94.9113 106.747 94.91 107.18V112.89C94.9113 113.323 94.8272 113.752 94.6624 114.152C94.4977 114.553 94.2555 114.916 93.9499 115.223C93.6443 115.53 93.2811 115.773 92.8813 115.939C92.4815 116.105 92.0529 116.19 91.62 116.19H74.8C74.4499 116.19 74.1141 116.051 73.8666 115.803C73.6191 115.556 73.48 115.22 73.48 114.87V112.87C73.48 110.483 74.4282 108.194 76.116 106.506C77.8038 104.818 80.093 103.87 82.48 103.87" fill="#068E4D"/>
      <path d="M82.46 103.88H91.62C92.0529 103.88 92.4815 103.965 92.8813 104.131C93.2811 104.297 93.6443 104.54 93.9499 104.847C94.2555 105.154 94.4977 105.517 94.6624 105.918C94.8272 106.318 94.9113 106.747 94.91 107.18V112.89C94.9113 113.323 94.8272 113.752 94.6624 114.152C94.4977 114.552 94.2555 114.916 93.9499 115.223C93.6443 115.529 93.2811 115.773 92.8813 115.938C92.4815 116.104 92.0529 116.19 91.62 116.19H74.8C74.4499 116.19 74.1141 116.051 73.8666 115.803C73.6191 115.556 73.48 115.22 73.48 114.87V112.87C73.4826 110.488 74.4293 108.205 76.1125 106.519C77.7957 104.834 80.0782 103.885 82.46 103.88V103.88Z" stroke="white" stroke-width="2" stroke-linecap="round" stroke-linejoin="round"/>
      <path d="M82.46 137.93H91.62C92.0529 137.93 92.4815 137.845 92.8813 137.679C93.2811 137.513 93.6443 137.27 93.9499 136.963C94.2555 136.656 94.4977 136.293 94.6624 135.892C94.8272 135.492 94.9113 135.063 94.91 134.63V128.92C94.9113 128.487 94.8272 128.058 94.6624 127.658C94.4977 127.258 94.2555 126.894 93.9499 126.587C93.6443 126.281 93.2811 126.037 92.8813 125.872C92.4815 125.706 92.0529 125.62 91.62 125.62H74.8C74.4499 125.62 74.1141 125.759 73.8666 126.007C73.6191 126.254 73.48 126.59 73.48 126.94V128.94C73.48 131.327 74.4282 133.616 76.116 135.304C77.8038 136.992 80.093 137.94 82.48 137.94" fill="#068E4D"/>
      <path d="M82.46 137.93H91.62C92.0529 137.93 92.4815 137.845 92.8813 137.679C93.2811 137.513 93.6443 137.27 93.9499 136.963C94.2555 136.656 94.4977 136.293 94.6624 135.892C94.8272 135.492 94.9113 135.063 94.91 134.63V128.92C94.9113 128.487 94.8272 128.058 94.6624 127.658C94.4977 127.258 94.2555 126.894 93.9499 126.587C93.6443 126.281 93.2811 126.037 92.8813 125.872C92.4815 125.706 92.0529 125.62 91.62 125.62H74.8C74.4499 125.62 74.1141 125.759 73.8666 126.007C73.6191 126.254 73.48 126.59 73.48 126.94V128.94C73.4826 131.322 74.4293 133.605 76.1125 135.291C77.7957 136.976 80.0782 137.925 82.46 137.93V137.93Z" stroke="white" stroke-width="2" stroke-linecap="round" stroke-linejoin="round"/>
      <animateMotion values="0,-2.5; 0,2.5; 0,-2.5; 0,2.5; 0,-2.5" calcMode="spline" begin="0s" dur="3s" fill="freeze" keySplines="0.65 0 0.35 1; 0.65 0 0.35 1; 0.65 0 0.35 1; 0.65 0 0.35 1" repeatCount="indefinite"/>
    </g>
    <g id="cloud1">
      <path d="M28.1802 38.3401H91.0902" stroke="white" stroke-width="2" stroke-miterlimit="10" stroke-linecap="round">
        <animateTransform attributeName="transform" type="translate" from="177, 0" to="1, 0" begin="0s" dur="1.5s" repeatCount="1" fill="freeze" />
      </path>
      <path d="M1 28.0799H36.29C36.29 24.7912 37.5964 21.6373 39.9219 19.3118C42.2473 16.9864 45.4013 15.6799 48.69 15.6799C51.9787 15.6799 55.1327 16.9864 57.4581 19.3118C59.7836 21.6373 61.09 24.7912 61.09 28.0799H79.02" stroke="white" stroke-width="2" stroke-miterlimit="10" stroke-linecap="round">
        <animateTransform attributeName="transform" type="translate" from="177, 0" to="-10, 0" begin="0s" dur="1.5s" repeatCount="1" fill="freeze" />
      </path>
      <animate id="cloud1passage" attributeName="opacity" values="0;1;1;0" dur="1.5s" begin="0s" repeatCount="1" keyTimes="0; 0.1; 0.9; 1" fill="freeze"/>
    </g>
    <g id="cloud2" opacity="0">
      <path d="M218.19 23.72H257.97" stroke="white" stroke-width="2" stroke-miterlimit="10" stroke-linecap="round">
        <animateTransform attributeName="transform" type="translate" from="0, 0" to="-177, 0" begin="cloud1passage.end-0.2s" dur="2s" repeatCount="1" fill="freeze" />
      </path>
      <g id="cloud2-top">
        <path d="M237.98 13.4501H210.62C210.62 10.1614 209.313 7.00737 206.988 4.68192C204.663 2.35647 201.509 1.05005 198.22 1.05005C194.931 1.05005 191.777 2.35647 189.452 4.68192C187.126 7.00737 185.82 10.1614 185.82 13.4501H167.88" stroke="white" stroke-width="2" stroke-miterlimit="10" stroke-linecap="round"/>
        <path d="M246.24 13.45H268.43" stroke="white" stroke-width="2" stroke-miterlimit="10" stroke-linecap="round"/>
        <animateTransform attributeName="transform" type="translate" from="0, 0" to="-187, 0" begin="cloud1passage.end-0.2s" dur="2s" repeatCount="1" fill="freeze" />
      </g>
      <animate id="cloud2passage" attributeName="opacity" values="0;1;1;0" dur="2s" begin="cloud1passage.end-0.2s" repeatCount="1" keyTimes="0; 0.1; 0.9; 1" fill="freeze"/>
    </g>
    <path id="wind1" d="M65 110H43" stroke="white" stroke-width="2" stroke-linecap="round">
      <animate attributeName="d" values="M65 110H43; M65 110H38; M65 110H43" begin="100ms" dur="200ms" repeatCount="indefinite" />
    </path>
    <path id="wind2" d="M65 121H28" stroke="white" stroke-width="2" stroke-linecap="round">
      <animate attributeName="d" values="M65 121H28; M65 121H33; M65 121H28" begin="0ms" dur="300ms" repeatCount="indefinite" />
    </path>
    <path id="wind3" d="M65 132H43" stroke="white" stroke-width="2" stroke-linecap="round">
      <animate attributeName="d" values="M65 132H43; M65 132H47; M65 132H43" begin="100ms" dur="200ms" repeatCount="indefinite" />
    </path>
    <animate id="introFadeOut" attributeName="opacity" from="1" to="0" begin="2.6s" dur="250ms" fill="freeze"/>
  </g>
  <path id="window-border" d="M35.65 74.01H18.52C13.87 73.989 9.417 72.128 6.134 68.834C2.851 65.54 1.005 61.081 1 56.43V18.58C1.005 13.9295 2.851 9.4701 6.134 6.176C9.417 2.882 13.87 1.0212 18.52 1H35.65C40.299 1.0238 44.749 2.8858 48.03 6.1796C51.311 9.4733 53.155 13.9312 53.16 18.58V56.41C53.158 61.061 51.315 65.523 48.034 68.82C44.754 72.118 40.301 73.984 35.65 74.01Z" stroke="white" stroke-width="2" transform="translate(159.41 163.57) scale(0.17 0.13)">
    <animate id="windowAppear" attributeName="opacity" from="0" to="1" begin="2.6s" dur="1ms"/>
    <animateTransform attributeName="transform" type="translate" from="159.41 163.57" to="199.87 83.52" dur="250ms" begin="windowAppear.end" additive="replace" fill="freeze"/>
    <animateTransform attributeName="transform" type="scale" from="0.17 0.13" to="1 1" dur="250ms" begin="windowAppear.end" additive="sum" fill="freeze"/>
  </path>
  <g id="ski" opacity="0">
    <path d="M50.6598 259.876C50.0829 259.825 49.5494 259.548 49.175 259.107C48.8005 258.665 48.6154 258.093 48.6598 257.516L62.3198 64.3458C63.4198 48.8558 57.5198 42.4258 53.5698 39.8758C53.3462 39.7249 53.173 39.5104 53.0724 39.2601C52.9718 39.0098 52.9486 38.7351 53.0056 38.4714C53.0627 38.2078 53.1974 37.9672 53.3924 37.7809C53.5874 37.5945 53.8338 37.4708 54.0998 37.4258C62.5198 36.0858 81.6998 36.0858 79.5198 66.2758L65.9498 258.756C65.8988 259.331 65.6239 259.863 65.1842 260.237C64.7446 260.611 64.1756 260.797 63.5998 260.756L50.6598 259.876Z" fill="white"/>
    <path d="M84.0199 260.256C83.731 260.252 83.4457 260.191 83.1802 260.077C82.9148 259.963 82.6745 259.797 82.473 259.59C82.2715 259.383 82.1127 259.138 82.0058 258.87C81.8989 258.602 81.8459 258.315 81.8499 258.026L84.0899 64.3958C84.2799 48.8658 78.0199 42.7858 73.9299 40.4858C73.7002 40.3471 73.517 40.143 73.4038 39.8996C73.2906 39.6563 73.2525 39.3848 73.2944 39.1197C73.3362 38.8546 73.4561 38.608 73.6388 38.4114C73.8215 38.2147 74.0586 38.077 74.3199 38.0158C82.6799 36.1158 101.81 35.0158 101.47 65.2958L99.2199 258.226C99.2173 258.515 99.1578 258.8 99.0448 259.066C98.9318 259.332 98.7676 259.573 98.5614 259.776C98.3553 259.978 98.1113 260.138 97.8433 260.246C97.5754 260.354 97.2888 260.408 96.9999 260.406L84.0199 260.256Z" fill="white"/>
    <animate attributeName="opacity" from="0" to="1" begin="introFadeOut.end+100ms" dur="250ms" additive="sum" fill="freeze" />
    <animateTransform attributeName="transform" type="translate" from="-50 0" to="0 0" begin="introFadeOut.end+100ms" dur="250ms" additive="sum" fill="freeze" calcMode="spline" keySplines="0.1 0.8 0.4 1" />
  </g>
  <g id="chair" opacity="0">
    <path d="M217.02 192.73H156.28V178.54H211.37C213.999 178.546 216.519 179.594 218.375 181.456C220.231 183.318 221.272 185.841 221.27 188.47C221.267 189.597 220.819 190.676 220.022 191.473C219.226 192.269 218.146 192.718 217.02 192.72" fill="#A67EE5"/>
    <path d="M217.02 192.73H156.28V178.54H211.37C213.999 178.546 216.519 179.594 218.375 181.456C220.231 183.318 221.272 185.841 221.27 188.47C221.27 189.598 220.822 190.68 220.026 191.479C219.229 192.278 218.148 192.728 217.02 192.73Z" stroke="white" stroke-width="2" stroke-miterlimit="10"/>
    <path d="M144.99 261.22H131.02L124.71 219.63H138.68L144.99 261.22Z" fill="#A67EE5"/>
    <path d="M144.99 261.22H131.02L124.71 219.63H138.68L144.99 261.22Z" stroke="white" stroke-width="2" stroke-miterlimit="10"/>
    <path d="M194.54 261.22H180.58L174.28 219.63H188.24L194.54 261.22Z" fill="#A67EE5"/>
    <path d="M194.54 261.22H180.58L174.28 219.63H188.24L194.54 261.22Z" stroke="white" stroke-width="2" stroke-miterlimit="10"/>
    <path d="M240.85 205.36H184.96C183.62 205.36 182.324 204.879 181.309 204.003C180.293 203.128 179.627 201.916 179.43 200.59L168.57 128.35C171.456 125.961 173.509 122.718 174.435 119.088C175.361 115.458 175.112 111.628 173.724 108.148C172.336 104.668 169.88 101.719 166.71 99.7226C163.54 97.7267 159.818 96.7876 156.08 97.0404H101L100.68 199.91L116.45 223.26L163.64 231.65C164.992 232.145 166.42 232.399 167.86 232.4H240.86C244.449 232.4 247.89 230.975 250.427 228.438C252.965 225.9 254.39 222.459 254.39 218.87C254.39 215.282 252.965 211.841 250.427 209.303C247.89 206.766 244.449 205.34 240.86 205.34" fill="#A67EE5"/>
    <path d="M240.85 205.36H184.96C183.62 205.36 182.324 204.879 181.309 204.003C180.293 203.128 179.627 201.916 179.43 200.59L168.57 128.35C171.456 125.961 173.509 122.718 174.435 119.088C175.361 115.458 175.112 111.628 173.724 108.148C172.336 104.668 169.88 101.719 166.71 99.7226C163.54 97.7267 159.818 96.7876 156.08 97.0404H101L100.68 199.91L116.45 223.26L163.64 231.65C164.992 232.145 166.42 232.399 167.86 232.4H240.86C244.356 232.265 247.663 230.78 250.088 228.258C252.513 225.737 253.866 222.374 253.865 218.876C253.864 215.377 252.508 212.015 250.081 209.495C247.654 206.976 244.346 205.494 240.85 205.36V205.36Z" stroke="white" stroke-width="2" stroke-miterlimit="10"/>
    <path d="M121.94 200.6L111.08 128.36C113.38 126.458 115.161 124.005 116.259 121.23C117.356 118.455 117.735 115.447 117.359 112.486C116.983 109.525 115.866 106.708 114.11 104.295C112.353 101.882 110.016 99.9513 107.314 98.6834C104.612 97.4155 101.634 96.8508 98.6558 97.042C95.6774 97.2331 92.7957 98.1739 90.2782 99.7768C87.7608 101.38 85.6892 103.593 84.256 106.211C82.8227 108.828 82.0743 111.766 82.0801 114.75C82.0825 116.53 82.3487 118.299 82.8701 120L98.1701 221.91C98.606 224.838 100.078 227.512 102.319 229.447C104.56 231.381 107.42 232.447 110.38 232.45H183.38C186.903 232.355 190.25 230.888 192.709 228.362C195.167 225.836 196.542 222.45 196.542 218.925C196.542 215.401 195.167 212.015 192.709 209.489C190.25 206.963 186.903 205.496 183.38 205.4H127.47C126.13 205.394 124.836 204.909 123.822 204.032C122.808 203.156 122.14 201.946 121.94 200.62" fill="#A67EE5"/>
    <path d="M121.94 200.6L111.08 128.36C113.38 126.458 115.161 124.005 116.259 121.23C117.356 118.455 117.735 115.447 117.359 112.486C116.983 109.525 115.866 106.708 114.11 104.295C112.353 101.882 110.016 99.9513 107.314 98.6834C104.612 97.4155 101.634 96.8508 98.6558 97.042C95.6774 97.2331 92.7957 98.1739 90.2782 99.7768C87.7608 101.38 85.6892 103.593 84.256 106.211C82.8227 108.828 82.0743 111.766 82.0801 114.75C82.0825 116.53 82.3487 118.299 82.8701 120L98.1701 221.91C98.606 224.838 100.078 227.512 102.319 229.447C104.56 231.381 107.42 232.447 110.38 232.45H183.38C186.903 232.355 190.25 230.888 192.709 228.362C195.167 225.836 196.542 222.45 196.542 218.925C196.542 215.401 195.167 212.015 192.709 209.489C190.25 206.963 186.903 205.496 183.38 205.4H127.47C126.127 205.393 124.831 204.905 123.816 204.025C122.802 203.144 122.136 201.929 121.94 200.6Z" stroke="white" stroke-width="2" stroke-miterlimit="10"/>
    <path d="M165.78 192.73H93.7799L91.6499 178.54H160.12C162.749 178.546 165.269 179.594 167.125 181.456C168.981 183.318 170.023 185.841 170.02 188.47C170.017 189.597 169.569 190.676 168.772 191.473C167.976 192.269 166.896 192.718 165.77 192.72" fill="#A67EE5"/>
    <path d="M165.78 192.73H93.7799L91.6499 178.54H160.12C162.749 178.546 165.269 179.594 167.125 181.456C168.981 183.318 170.023 185.841 170.02 188.47C170.02 189.597 169.574 190.677 168.779 191.475C167.985 192.274 166.906 192.725 165.78 192.73Z" stroke="white" stroke-width="2" stroke-miterlimit="10"/>
    <path d="M111.08 128.35H168.57" stroke="white" stroke-width="2" stroke-miterlimit="10" stroke-linecap="round"/>
    <animate attributeName="opacity" from="0" to="1" begin="introFadeOut.end" dur="250ms" additive="sum" fill="freeze" />
    <animateTransform attributeName="transform" type="translate" from="-100 0" to="0 0" begin="introFadeOut.end" dur="250ms" additive="sum" fill="freeze" calcMode="spline" keySplines="0.1 0.8 0.4 1" />
  </g>
  <g id="tree" opacity="0">
    <path d="M38.7001 125.1C44.9462 133.416 50.1797 142.446 54.2901 152C47.1262 144.564 40.4205 136.699 34.2101 128.45C28.0085 120.172 22.3083 111.53 17.1401 102.57C25.1936 109.2 32.4309 116.763 38.7001 125.1" fill="#36E69A"/>
    <path d="M40.46 145.49C48.8583 151.376 56.5139 158.256 63.26 165.98C54.3277 161.287 45.6975 156.04 37.42 150.27C29.2248 144.54 21.4024 138.294 14 131.57C23.3666 135.087 32.2558 139.764 40.46 145.49" fill="#36E69A"/>
    <path d="M53.1802 136.58C55.9476 146.57 59.3137 156.384 63.2602 165.97C63.0197 155.65 61.5083 145.4 58.7602 135.45C55.9067 125.198 51.859 115.317 46.7002 106.01C48.2428 116.32 50.4034 126.529 53.1702 136.58" fill="#36E69A"/>
    <path d="M66.84 144.62C66.8972 154.876 67.5852 165.118 68.9 175.29C71.418 165.472 72.6814 155.375 72.66 145.24C72.5951 134.664 71.2521 124.134 68.66 113.88C67.3739 124.075 66.7493 134.344 66.79 144.62" fill="#25B774"/>
    <path d="M42.5999 160.66C51.9341 164.436 60.7646 169.353 68.8899 175.3C59.312 172.853 49.9051 169.779 40.7299 166.1C31.6773 162.439 22.8692 158.2 14.3599 153.41C24.0507 154.616 33.5456 157.066 42.6099 160.7" fill="#25B774"/>
    <path d="M47.5799 174.93C57.2005 177.477 66.4606 181.23 75.1399 186.1C65.4284 184.903 55.8118 183.032 46.3599 180.5C37.0256 177.993 27.866 174.877 18.9399 171.17C28.6095 171.193 38.2368 172.447 47.5899 174.9" fill="#25B774"/>
    <path d="M78.2299 155.89C76.5528 165.897 75.5173 176.001 75.1299 186.14C79.2761 177.042 82.2402 167.451 83.9499 157.6C85.6998 147.301 86.1767 136.825 85.3699 126.41C82.2919 136.055 79.9026 145.906 78.2199 155.89" fill="#25B774"/>
    <path d="M58.3799 193.1C67.8868 196.057 76.9821 200.203 85.4499 205.44C75.7948 203.837 66.262 201.568 56.9199 198.65C47.701 195.761 38.6816 192.27 29.9199 188.2C39.5759 188.621 49.1392 190.267 58.3799 193.1Z" fill="#068E4D"/>
    <path d="M89.7902 175.39C87.6994 185.32 86.2498 195.374 85.4502 205.49C89.9741 196.57 93.3348 187.106 95.4502 177.33C97.6248 167.114 98.535 156.669 98.1602 146.23C94.6886 155.74 91.895 165.485 89.8002 175.39" fill="#068E4D"/>
    <path d="M68.4202 211.79C77.799 215.144 86.7163 219.67 94.9602 225.26C85.3779 223.243 75.9457 220.57 66.7302 217.26C57.6374 213.986 48.7685 210.121 40.1802 205.69C49.8135 206.509 59.3033 208.552 68.4202 211.77" fill="#068E4D"/>
    <path d="M100.52 195.36C98.0192 205.196 96.1553 215.184 94.9399 225.26C99.8222 216.529 103.569 207.21 106.09 197.53C108.693 187.4 110.036 176.989 110.09 166.53C106.222 175.901 103.024 185.536 100.52 195.36" fill="#068E4D"/>
    <path d="M52.1401 148.77C75.3552 183.189 94.4397 220.221 109 259.1" stroke="#36E69A" stroke-width="2" stroke-linecap="round" stroke-linejoin="round"/>
    <animate attributeName="opacity" from="0" to="1" begin="introFadeOut.end" dur="250ms" additive="sum" fill="freeze" />
    <animateTransform id="treeArrive" attributeName="transform" type="translate" from="-100 0" to="0 0" begin="introFadeOut.end" dur="400ms" additive="sum" fill="freeze" calcMode="spline" keySplines="0.1 0.8 0.4 1" />
    <animateTransform attributeName="transform" type="rotate" values="0 110 259; 15 110 259; 15 110 259; -5 110 259; 5 110 259; 0 110 259" begin="treeArrive.end" dur="1000ms" additive="sum" repeatCount="1" calcMode="spline" keyTimes="0; 0.15; 0.25; 0.5; 0.65; 1"  keySplines="0.5 1 0.89 1; 0.76 0 0.24 1; 0.76 0 0.24 1; 0.76 0 0.24 1; 0.76 0 0.24 1"/>
  </g>
  <g id="window" opacity="0">
    <mask id="mask0" mask-type="alpha" maskUnits="userSpaceOnUse" x="199" y="83" width="54" height="74">
      <path id="mask" d="M234.52 156.53H217.39C212.74 156.509 208.287 154.648 205.004 151.354C201.721 148.06 199.875 143.601 199.87 138.95V101.1C199.875 96.4495 201.721 91.9901 205.004 88.696C208.287 85.402 212.74 83.5412 217.39 83.52H234.52C239.169 83.5438 243.619 85.4058 246.9 88.6996C250.181 91.9933 252.025 96.4512 252.03 101.1V138.93C252.028 143.581 250.185 148.043 246.904 151.34C243.624 154.638 239.171 156.504 234.52 156.53V156.53Z" fill="#C4C4C4"/>
    </mask>
    <g mask="url(#mask0)">
      <g id="clouds">
        <path d="M134.374 124.721H167.644" stroke="white" stroke-miterlimit="10" stroke-linecap="round"/>
        <path d="M120 119.295H138.663C138.663 117.556 139.354 115.888 140.584 114.658C141.814 113.428 143.482 112.737 145.221 112.737C146.96 112.737 148.628 113.428 149.858 114.658C151.088 115.888 151.779 117.556 151.779 119.295H161.261" stroke="white" stroke-miterlimit="10" stroke-linecap="round"/>
        <path d="M234.861 116.989H255.898" stroke="white" stroke-miterlimit="10" stroke-linecap="round"/>
        <path d="M245.327 111.558H230.857C230.857 109.819 230.166 108.151 228.937 106.921C227.707 105.691 226.039 105 224.3 105C222.56 105 220.892 105.691 219.663 106.921C218.433 108.151 217.742 109.819 217.742 111.558H208.254" stroke="white" stroke-miterlimit="10" stroke-linecap="round"/>
        <path d="M249.695 111.558H261.43" stroke="white" stroke-miterlimit="10" stroke-linecap="round"/>
        <animateTransform attributeName="transform" type="translate" from="150 0" to="-50 0" dur="4s" begin="windowAppear.end+250ms" repeatCount="indefinite" />
        <animate attributeName="opacity" values="1; 1; 0" keyTimes="0; 0.9; 1" dur="4s" begin="windowAppear.end+250ms" repeatCount="indefinite"/>
      </g>
    </g>
    <set attributeName="opacity" from="0" to="1" begin="windowAppear.end+250ms" />
  </g>
  <path id="mountains" d="M40,260 L83,260 L101,241 L103,240 L105,241 L108,244 L135,218 L137,217 L139,218 L158,239 L169,228 L171,227 L173,228 L204,260 L250,260" stroke="white" stroke-width="2" stroke-miterlimit="10" stroke-linecap="round">
    <animate attributeName="d" values="M40,260 L83,260 L101,241 L103,240 L105,241 L108,244 L135,218 L137,217 L139,218 L158,239 L169,228 L171,227 L173,228 L204,260 L250,260; M40,260 L83,260 L101,260 L103,260 L105,260 L108,260 L135,260 L137,260 L139,260 L158,260 L169,260 L171,260 L173,260 L204,260 L250,260" dur="250ms" begin="introFadeOut.end-250ms" fill="freeze" repeatCount="1"/>
  </path>
  <!--path id="window-border" d="M234.52 156.53H217.39C212.74 156.509 208.287 154.648 205.004 151.354C201.721 148.06 199.875 143.601 199.87 138.95V101.1C199.875 96.4495 201.721 91.9901 205.004 88.696C208.287 85.402 212.74 83.5412 217.39 83.52H234.52C239.169 83.5438 243.619 85.4058 246.9 88.6996C250.181 91.9933 252.025 96.4512 252.03 101.1V138.93C252.028 143.581 250.185 148.043 246.904 151.34C243.624 154.638 239.171 156.504 234.52 156.53V156.53Z" stroke="white" stroke-width="2"/-->
</svg>
