<svg width="270" height="261" viewBox="0 0 270 261" xmlns="http://www.w3.org/2000/svg">
  <g id="Page-1" stroke="none" stroke-width="1" fill="none" fill-rule="evenodd">
    <g id="primary-award-from" transform="translate(1 1)">
      <g id="body-bottom" transform="translate(130.59 149.85)" stroke="#FFF" stroke-linecap="round" stroke-width="2">
        <path d="M3.08 28.97h48.36a13.27 13.27 0 0013-10.65L68.18 0H0v25.89a3.09 3.09 0 003.08 3.08h0z" id="Path" stroke-linejoin="round"/>
        <path d="M63.43 21.38h-9.22a8.31 8.31 0 01-8.28-8.31V0" id="Path"/>
        <path d="M31.89 11.57h-2.05a3.45 3.45 0 00-3.43 3.45v2.92a3.45 3.45 0 003.43 3.45h2.05a3.45 3.45 0 003.43-3.45v-2.92a3.44 3.44 0 00-3.43-3.45h0z" id="enlarge-window" stroke-linejoin="round"/>
        <path d="M13.28 11.57h-2.05a3.45 3.45 0 00-3.43 3.45v2.92a3.45 3.45 0 003.43 3.45h2.05a3.45 3.45 0 003.43-3.45v-2.92a3.45 3.45 0 00-3.43-3.45h0z" id="Path" stroke-linejoin="round"/>
      </g>
      <g id="body" transform="translate(82.332 81.86)">
        <path d="M80.898 74.76c43.38 0 74.86-15.55 74.86-37s-31.48-37-74.86-37c-27.94 0-55.36 13.53-73.46 24.87a14.3 14.3 0 000 24.21c18.09 11.33 45.52 24.87 73.46 24.87" id="Path" fill="#068E4D" fill-rule="nonzero"/>
        <path d="M80.898 74.76c43.38 0 74.86-15.55 74.86-37s-31.48-37-74.86-37c-27.94 0-55.36 13.53-73.46 24.87a14.3 14.3 0 000 24.21c18.09 11.38 45.52 24.92 73.46 24.92z" id="Path" stroke="#FFF" stroke-width="2"/>
        <path d="M80.898 23.77c-28.23 0-56.07 5.76-72.81 10-3.95 1-6 2.66-6.08 4.34a12.93 12.93 0 016.07-11.43C24.818 16.18 52.658 2 80.888 2c44.81 0 73.64 16 73.64 35.75v.37c-.37-7.95-29.1-14.37-73.63-14.37" id="Path" fill="#36E69A" fill-rule="nonzero"/>
        <path d="M8.078 42.8c16.74 4.27 44.58 10 72.81 10 44.14 0 72.75-6.32 73.6-14.18-.86 19.34-29.45 34.86-73.6 34.86-28.23 0-56.07-14.19-72.81-24.68a12.88 12.88 0 01-6-10.18c.26 1.61 2.26 3.18 6 4.14" id="Path" fill="#068E4D" fill-rule="nonzero"/>
        <path d="M8.078 33.8c16.74-4.27 44.58-10 72.81-10 44.53 0 73.26 6.43 73.61 14.38v.51c-.85 7.86-29.45 14.17-73.6 14.17-28.23 0-56.07-5.76-72.81-10-3.79-1-5.79-2.53-6-4.13v-.51c.13-1.69 2.15-3.36 6.1-4.37" id="Path" fill="#25B774" fill-rule="nonzero"/>
      </g>
      <g id="top-fins" transform="translate(72.48 102.87)">
        <path d="M8.98.01h9.16a3.29 3.29 0 013.29 3.3v5.71a3.29 3.29 0 01-3.29 3.3H1.32A1.32 1.32 0 010 11V9a9 9 0 019-9" id="Path" fill="#068E4D" fill-rule="nonzero"/>
        <path d="M8.98.01h9.16a3.29 3.29 0 013.29 3.3v5.71a3.29 3.29 0 01-3.29 3.3H1.32A1.32 1.32 0 010 11V9A9 9 0 018.98.01z" id="Path" stroke="#FFF" stroke-width="2" stroke-linecap="round" stroke-linejoin="round"/>
        <path d="M8.98.01h9.16a3.29 3.29 0 013.29 3.3v5.71a3.29 3.29 0 01-3.29 3.3H1.32A1.32 1.32 0 010 11V9a9 9 0 019-9" id="Path" fill="#068E4D" fill-rule="nonzero"/>
        <path d="M8.98.01h9.16a3.29 3.29 0 013.29 3.3v5.71a3.29 3.29 0 01-3.29 3.3H1.32A1.32 1.32 0 010 11V9A9 9 0 018.98.01z" id="Path" stroke="#FFF" stroke-width="2" stroke-linecap="round" stroke-linejoin="round"/>
      </g>
      <g id="bottom-fins" transform="translate(72.48 124.62)">
        <path d="M8.98 12.31h9.16a3.29 3.29 0 003.29-3.3V3.3A3.29 3.29 0 0018.14 0H1.32A1.32 1.32 0 000 1.32v2a9 9 0 009 9" id="Path" fill="#068E4D" fill-rule="nonzero"/>
        <path d="M8.98 12.31h9.16a3.29 3.29 0 003.29-3.3V3.3A3.29 3.29 0 0018.14 0H1.32A1.32 1.32 0 000 1.32v2a9 9 0 008.98 8.99h0z" id="Path" stroke="#FFF" stroke-width="2" stroke-linecap="round" stroke-linejoin="round"/>
        <path d="M8.98 12.31h9.16a3.29 3.29 0 003.29-3.3V3.3A3.29 3.29 0 0018.14 0H1.32A1.32 1.32 0 000 1.32v2a9 9 0 009 9" id="Path" fill="#068E4D" fill-rule="nonzero"/>
        <path d="M8.98 12.31h9.16a3.29 3.29 0 003.29-3.3V3.3A3.29 3.29 0 0018.14 0H1.32A1.32 1.32 0 000 1.32v2a9 9 0 008.98 8.99h0z" id="Path" stroke="#FFF" stroke-width="2" stroke-linecap="round" stroke-linejoin="round"/>
      </g>
      <g id="clouds" transform="translate(0 .05)" stroke="#FFF" stroke-linecap="round" stroke-width="2">
        <g id="cloud-2" transform="translate(0 14.63)">
          <path id="Path" d="M27.18 22.66h62.91M0 12.4h35.29c0-6.848 5.552-12.4 12.4-12.4 6.848 0 12.4 5.552 12.4 12.4h17.93"/>
        </g>
        <g id="cloud-1" transform="translate(166.88)">
          <path id="Path" d="M50.31 22.67h39.78M70.1 12.4H42.74c0-6.848-5.552-12.4-12.4-12.4-6.848 0-12.4 5.552-12.4 12.4H0M78.36 12.4h22.19"/>
        </g>
      </g>
      <g id="tail" transform="translate(27 108.53)" stroke="#FFF" stroke-linecap="round" stroke-width="2">
        <path id="top-tail" d="M37.48.5h-22.2"/>
        <path id="bottom-tail" d="M37.48 22.24h-22.2"/>
        <path id="long-tail" d="M37.48 11.99H0"/>
      </g>
      <g id="mountain" transform="translate(39.01 215.612)" stroke="#FFF" stroke-linecap="round" stroke-width="2">
        <path d="M209.16 41.808H164.1l-32.08-31.3a1.89 1.89 0 00-2.44 0l-10.2 10.23a1.72 1.72 0 01-2.25 0l-19-20.17a2.4 2.4 0 00-3.1 0l-26.42 25.64a1.71 1.71 0 01-2.25 0l-2.63-2.92a1.71 1.71 0 00-2.31 0l-17.57 19.64H0" id="peak"/>
        <path d="M209.16 41.928H0" id="ground"/>
      </g>
    </g>
  </g>
</svg>
