<svg width="270" height="261" viewBox="0 0 270 261" xmlns="http://www.w3.org/2000/svg" xmlns:xlink="http://www.w3.org/1999/xlink">
  <g stroke="none" stroke-width="1" fill="none" fill-rule="evenodd">
    <g id="primaryAwardFrom" transform="translate(1 1)">
      <g id="bodyBottom" transform="translate(130.59 149.85)" stroke="#FFF" stroke-linecap="round" stroke-width="2">
        <g>
          <path d="M3.08 28.97h48.36a13.27 13.27 0 0013-10.65L68.18 0H0v25.89a3.09 3.09 0 003.08 3.08h0z" stroke-linejoin="round"/>
          <path d="M63.43 21.38h-9.22a8.31 8.31 0 01-8.28-8.31V0"/>
          <path d="M31.89 11.57h-2.05a3.45 3.45 0 00-3.43 3.45v2.92a3.45 3.45 0 003.43 3.45h2.05a3.45 3.45 0 003.43-3.45v-2.92a3.44 3.44 0 00-3.43-3.45h0z" id="enlargeWindow" stroke-linejoin="round">
            <animate
              id="enlargeWindowOpacity"
              attributeType="CSS"
              attributeName="opacity"
              from="1"
              to="0"
              dur="0.001s"
              fill="freeze"
              begin="2.5s"
            />
          </path>
          <path d="M13.28 11.57h-2.05a3.45 3.45 0 00-3.43 3.45v2.92a3.45 3.45 0 003.43 3.45h2.05a3.45 3.45 0 003.43-3.45v-2.92a3.45 3.45 0 00-3.43-3.45h0z" stroke-linejoin="round"/>
          <animateTransform
            attributeName="transform"
            type="scale"
            values="1, 0.8; 1, 1; 1, 0.8; 1, 1; 1, 0.8"
            keyTimes="0; 0.3; 0.5; 0.7; 1"
            dur="2s"
            additive="sum"
            repeatCount="indefinite"
            begin="-1s"
          />
          <animateTransform
            attributeName="transform"
            type="skewX"
            values="-5; 0; 5; 0; -5"
            keyTimes="0; 0.3; 0.5; 0.7; 1"
            dur="2s"
            additive="sum"
            repeatCount="indefinite"
            begin="-1s"
          />
        </g>
      </g>
      <g id="bottomFins">
        <g>
          <path d="M82.46 103.88h9.16a3.29 3.29 0 013.29 3.3v5.71a3.29 3.29 0 01-3.29 3.3H74.8a1.319 1.319 0 01-1.32-1.32v-2a9 9 0 019-9" fill="#068E4D"/>
          <path fill-rule="evenodd" clip-rule="evenodd" d="M82.46 103.88h9.16a3.29 3.29 0 013.29 3.3v5.71a3.29 3.29 0 01-3.29 3.3H74.8a1.319 1.319 0 01-1.32-1.32v-2a8.999 8.999 0 018.98-8.99v0z" stroke="#fff" stroke-width="2" stroke-linecap="round" stroke-linejoin="round"/>
        </g>
        <g>
          <path d="M82.46 137.93h9.16a3.29 3.29 0 003.29-3.3v-5.71a3.29 3.29 0 00-3.29-3.3H74.8a1.319 1.319 0 00-1.32 1.32v2a9 9 0 009 9" fill="#068E4D"/>
          <path fill-rule="evenodd" clip-rule="evenodd" d="M82.46 137.93h9.16a3.29 3.29 0 003.29-3.3v-5.71a3.29 3.29 0 00-3.29-3.3H74.8a1.319 1.319 0 00-1.32 1.32v2a8.999 8.999 0 008.98 8.99v0z" stroke="#fff" stroke-width="2" stroke-linecap="round" stroke-linejoin="round"/>
        </g>
        <animateTransform
          attributeName="transform"
          type="translate"
          values="0 5; 0 0; 0 5"
          dur="2s"
          repeatCount="indefinite"
        />
      </g>
      <g id="body" transform="translate(82.332 81.86)">
        <g>
          <path d="M80.898 74.76c43.38 0 74.86-15.55 74.86-37s-31.48-37-74.86-37c-27.94 0-55.36 13.53-73.46 24.87a14.3 14.3 0 000 24.21c18.09 11.33 45.52 24.87 73.46 24.87" fill="#068E4D" fill-rule="nonzero"/>
          <path d="M80.898 74.76c43.38 0 74.86-15.55 74.86-37s-31.48-37-74.86-37c-27.94 0-55.36 13.53-73.46 24.87a14.3 14.3 0 000 24.21c18.09 11.38 45.52 24.92 73.46 24.92z" stroke="#FFF" stroke-width="2"/>
          <path d="M80.898 23.77c-28.23 0-56.07 5.76-72.81 10-3.95 1-6 2.66-6.08 4.34a12.93 12.93 0 016.07-11.43C24.818 16.18 52.658 2 80.888 2c44.81 0 73.64 16 73.64 35.75v.37c-.37-7.95-29.1-14.37-73.63-14.37" fill="#36E69A" fill-rule="nonzero"/>
          <path d="M8.078 42.8c16.74 4.27 44.58 10 72.81 10 44.14 0 72.75-6.32 73.6-14.18-.86 19.34-29.45 34.86-73.6 34.86-28.23 0-56.07-14.19-72.81-24.68a12.88 12.88 0 01-6-10.18c.26 1.61 2.26 3.18 6 4.14" fill="#068E4D" fill-rule="nonzero"/>
          <path d="M8.078 33.8c16.74-4.27 44.58-10 72.81-10 44.53 0 73.26 6.43 73.61 14.38v.51c-.85 7.86-29.45 14.17-73.6 14.17-28.23 0-56.07-5.76-72.81-10-3.79-1-5.79-2.53-6-4.13v-.51c.13-1.69 2.15-3.36 6.1-4.37" fill="#25B774" fill-rule="nonzero">
            <animate
              attributeName="d"
              values="
                M8.01319 34.2175C23.5 28 52.7658 21 81.105 21C125.807 21 154.649 30.5699 155 38.6928V39.2139C154.147 47.2449 125.426 55 81.105 55C52.7658 55 23.6636 49.3804 8.02323 43.4746C4.21856 42.4529 2.21081 40.8896 2 39.2548V38.7337C2.1305 37.0069 4.15832 35.3006 8.12361 34.2686;
                M8.01319 34.2175C24.818 29.8546 52.7658 24 81.105 24C125.807 24 154.649 30.5699 155 38.6928V39.2139C154.147 47.2449 125.426 57 81.105 57C52.7658 57 23.6636 49.3804 8.02323 43.4746C4.21856 42.4529 2.21081 40.8896 2 39.2548V38.7337C2.1305 37.0069 4.15832 35.3006 8.12361 34.2686;
                M8.01319 34.2175C23.5 28 52.7658 21 81.105 21C125.807 21 154.649 30.5699 155 38.6928V39.2139C154.147 47.2449 125.426 55 81.105 55C52.7658 55 23.6636 49.3804 8.02323 43.4746C4.21856 42.4529 2.21081 40.8896 2 39.2548V38.7337C2.1305 37.0069 4.15832 35.3006 8.12361 34.2686"
              begin="0s"
              dur="2s"
              repeatCount="indefinite"
            />
          </path>
        </g>
      </g>
      <g id="topFins">
        <g>
          <path d="M82.46 103.88h9.16a3.29 3.29 0 013.29 3.3v5.71a3.29 3.29 0 01-3.29 3.3H74.8a1.319 1.319 0 01-1.32-1.32v-2a9 9 0 019-9" fill="#068E4D"/>
          <path fill-rule="evenodd" clip-rule="evenodd" d="M82.46 103.88h9.16a3.29 3.29 0 013.29 3.3v5.71a3.29 3.29 0 01-3.29 3.3H74.8a1.319 1.319 0 01-1.32-1.32v-2a8.999 8.999 0 018.98-8.99v0z" stroke="#fff" stroke-width="2" stroke-linecap="round" stroke-linejoin="round"/>
        </g>
        <g>
          <path d="M82.46 137.93h9.16a3.29 3.29 0 003.29-3.3v-5.71a3.29 3.29 0 00-3.29-3.3H74.8a1.319 1.319 0 00-1.32 1.32v2a9 9 0 009 9" fill="#068E4D"/>
          <path fill-rule="evenodd" clip-rule="evenodd" d="M82.46 137.93h9.16a3.29 3.29 0 003.29-3.3v-5.71a3.29 3.29 0 00-3.29-3.3H74.8a1.319 1.319 0 00-1.32 1.32v2a8.999 8.999 0 008.98 8.99v0z" stroke="#fff" stroke-width="2" stroke-linecap="round" stroke-linejoin="round"/>
        </g>
        <animateTransform
          attributeName="transform"
          type="translate"
          values="0 0; 0 5; 0 0"
          dur="2s"
          repeatCount="indefinite"
        />
      </g>
      <g id="clouds" transform="translate(0 .05)" stroke="#FFF" stroke-linecap="round" stroke-width="2">
        <g id="cloud2" transform="translate(0 14.63)">
          <path d="M27.18 22.66h62.91M0 12.4h35.29c0-6.848 5.552-12.4 12.4-12.4 6.848 0 12.4 5.552 12.4 12.4h17.93">
            <animateTransform
              id="cloud2Translate"
              attributeName="transform"
              type="translate"
              from="200 0"
              to="-10 0"
              dur="2s"
              fill="freeze"
            />
            <animate
              id="cloud2OpacityIn"
              attributeType="CSS"
              attributeName="opacity"
              values="0; 1; 1; 0"
              keyTimes="0; 0.2; 0.8; 1"
              dur="2s"
              fill="freeze"
            />
          </path>
        </g>
        <g id="cloud1" transform="translate(166.88)">
          <path d="M50.31 22.67h39.78M70.1 12.4H42.74c0-6.848-5.552-12.4-12.4-12.4-6.848 0-12.4 5.552-12.4 12.4H0M78.36 12.4h22.19">
            <animateTransform
              id="cloud1Translate"
              attributeName="transform"
              type="translate"
              values="170 0; 0 0; -170 0"
              keyTimes="0; 0.5; 1"
              dur="4s"
              fill="freeze"
            />
            <animate
              id="cloud1OpacityIn"
              attributeType="CSS"
              attributeName="opacity"
              values="0; 1; 1; 0"
              keyTimes="0; 0.5; 0.9; 1"
              dur="4s"
              fill="freeze"
              begin="cloud1Translate.begin"
            />
          </path>
        </g>
      </g>
      <defs>
        <rect id="tailRect" width="39" height="33" stroke="black" transform="translate(0 -5)"/>
        <clipPath id="tailClip">
          <use xlink:href="#tailRect"/>
        </clipPath>
      </defs>
      <g id="tail" transform="translate(27 108.53)" stroke="#FFF" stroke-linecap="round" stroke-width="2" clip-path="url(#tailClip)">
        <path id="topTail" d="M37.48.5h-22.2">
          <animateTransform
            id="topTailScale"
            attributeName="transform"
            type="translate"
            values="1 0; 10 0; 1 0"
            keyTimes="0; 0.5; 1"
            dur="1s"
            repeatCount="indefinite"
          />
        </path>
        <path id="bottomTail" d="M37.48 22.24h-22.2">
          <animateTransform
            id="bottomTailScale"
            attributeName="transform"
            type="translate"
            values="1 0; 10 0; 1 0"
            keyTimes="0; 0.5; 1"
            dur="1s"
            repeatCount="indefinite"
            begin="topTailScale.begin + 0.2s"
          />
        </path>
        <path id="longTail" d="M37.48 11.99H0">
          <animateTransform
            id="longTailScale"
            attributeName="transform"
            type="translate"
            values="1 0; 10 0; 1 0"
            keyTimes="0; 0.5; 1"
            dur="1s"
            repeatCount="indefinite"
            begin="topTailScale.begin + 0.4s"
          />
        </path>
      </g>
      <g id="mountain" transform="translate(39.01 215.612)" stroke="#FFF" stroke-linecap="round" stroke-width="2">
        <path d="M 210.17 43.42 L 165.11 43.42 L 133.03 12.12 C 132.326 11.525 131.294 11.525 130.59 12.12 L 120.39 22.35 C 119.744 22.909 118.786 22.909 118.14 22.35 L 99.14 2.18 C 98.245 1.423 96.935 1.423 96.04 2.18 C 87.233 10.727 78.427 19.273 69.62 27.82 C 68.976 28.383 68.014 28.383 67.37 27.82 C 66.726 27.257 64.74 24.9 64.74 24.9 C 64.74 24.9 63.084 24.301 62.43 24.9 C 61.776 25.499 44.86 44.54 44.86 44.54 L 1.01 44.54" stroke="white" stroke-width="2" stroke-linecap="round">
          <animate
            attributeName="d"
            values="
              M 210.17 43.42 L 165.11 43.42 L 133.03 12.12 C 132.326 11.525 131.294 11.525 130.59 12.12 L 120.39 22.35 C 119.744 22.909 118.786 22.909 118.14 22.35 L 99.14 2.18 C 98.245 1.423 96.935 1.423 96.04 2.18 C 87.233 10.727 78.427 19.273 69.62 27.82 C 68.976 28.383 68.014 28.383 67.37 27.82 C 66.726 27.257 64.74 24.9 64.74 24.9 C 64.74 24.9 63.084 24.301 62.43 24.9 C 61.776 25.499 44.86 44.54 44.86 44.54 L 1.01 44.54;
              M 210.17 43.54 L 187.722 43.54 L 165.275 43.54 C 157.792 43.54 150.31 43.54 142.827 43.54 L 120.38 43.54 C 119.52 43.54 118.82 43.54 118.13 43.54 L 99.13 43.54 C 98.38 43.54 97.823 43.54 97.344 43.54 C 96.865 43.54 96.465 43.54 96.03 43.54 C 85.263 43.54 74.497 43.54 63.73 43.54 C 63.367 43.54 63.061 43.54 62.791 43.54 C 62.521 43.54 62.287 43.54 62.066 43.54 C 61.844 43.54 61.637 43.54 61.42 43.54 L 1.01 43.54
            "
            dur="1s"
            fill="freeze"
            repeatCount="1"
            begin="2.5s"
          />
        </path>
      </g>

      <animate
        id="from"
        attributeType="CSS"
        attributeName="opacity"
        from="1"
        to="0"
        dur="0.5s"
        fill="freeze"
        begin="3.5s"
      />
    </g>
    <path d="M220.52,120.53 L203.39,120.53 C193.708843,120.486 185.880901,112.631251 185.87,102.95 L185.87,65.1 C185.880901,55.4187489 193.708843,47.5639996 203.39,47.52 L220.52,47.52 C230.197249,47.5694805 238.019129,55.4226305 238.03,65.1 L238.03,102.93 C238.024658,112.612915 230.20276,120.475016 220.52,120.53 Z" id="window" stroke="#FFFFFF" stroke-width="15" transform="translate(130, 157) scale(0.15, 0.12)" opacity="0">
      <animate
        attributeType="CSS"
        attributeName="opacity"
        from="0"
        to="1"
        dur="0.001s"
        fill="freeze"
        begin="enlargeWindowOpacity.begin"
      />

      <animateTransform
        attributeName="transform"
        type="translate"
        values="130, 157; 20, 35"
        keyTimes="0; 1"
        dur="0.5s"
        additive="replace"
        fill="freeze"
        begin="enlargeWindowOpacity.end + 0.3s"
      />

      <animateTransform
        id="windowTransform"
        attributeName="transform"
        type="scale"
        values="0.15 0.12; 1, 1"
        keyTimes="0; 1"
        dur="0.5s"
        additive="sum"
        fill="freeze"
        begin="enlargeWindowOpacity.end + 0.3s"
      />

      <animate
        id="to"
        attributeType="CSS"
        attributeName="stroke-width"
        from="15"
        to="2"
        dur="0.2s"
        fill="freeze"
        begin="enlargeWindowOpacity.end + 0.3s"
      />
    </path>
    <g id="primaryAwardTo" transform="translate(20 36)" opacity="0">
      <g id="ski" transform="translate(34.653432, 0.014212)" fill="#FFFFFF" fill-rule="nonzero">
        <path d="M2.00656795,222.875788 C0.806001424,222.769762 -0.0857584398,221.717486 0.00656795096,220.515788 L13.666568,27.345788 C14.766568,11.855788 8.86656795,5.42578799 4.91656795,2.87578799 C4.45911864,2.56699922 4.23570026,2.01085329 4.35239489,1.47141586 C4.46908952,0.93197843 4.90239339,0.517898955 5.44656795,0.425787993 C13.866568,-0.914212007 33.046568,-0.914212007 30.866568,29.275788 L17.296568,221.755788 C17.1905046,222.952166 16.1445133,223.842371 14.946568,223.755788 L2.00656795,222.875788 Z"></path>
        <path d="M35.366568,223.255788 C34.7830743,223.247886 34.2266246,223.008487 33.8196591,222.590269 C33.4126936,222.172051 33.188557,221.60928 33.196568,221.025788 L35.436568,27.395788 C35.626568,11.865788 29.366568,5.78578799 25.276568,3.48578799 C24.8066629,3.20198183 24.5554061,2.66189137 24.6410233,2.11964936 C24.7266404,1.57740734 25.1320802,1.14100581 25.666568,1.01578799 C34.026568,-0.884212007 53.156568,-1.98421201 52.816568,28.295788 L50.566568,221.225788 C50.5612877,221.809272 50.3244232,222.366757 49.9080871,222.775592 C49.4917511,223.184426 48.9300514,223.411117 48.346568,223.40588 L35.366568,223.255788 Z"></path>
      </g>
      <g id="chair" transform="translate(68.079966, 59.189391)">
          <path d="M134.940034,95.7306095 L74.2000345,95.7306095 L74.2000345,81.5406095 L129.290034,81.5406095 C134.764793,81.5516445 139.195565,85.9958425 139.19004,91.4706095 C139.184536,93.8155385 137.284964,95.7151114 134.940034,95.7206095" fill="#A67EE5" fill-rule="nonzero"></path>
          <path d="M134.940034,95.7306095 L74.2000345,95.7306095 L74.2000345,81.5406095 L129.290034,81.5406095 C134.764793,81.5516445 139.195565,85.9958425 139.19004,91.4706095 C139.19004,93.8194428 137.288861,95.7250958 134.940034,95.7306095 Z" stroke="#FFFFFF" stroke-width="2"></path>
          <polygon fill="#A67EE5" fill-rule="nonzero" points="62.9100345 164.220609 48.9400345 164.220609 42.6300345 122.630609 56.6000345 122.630609"></polygon>
          <polygon stroke="#FFFFFF" stroke-width="2" points="62.9100345 164.220609 48.9400345 164.220609 42.6300345 122.630609 56.6000345 122.630609"></polygon>
          <polygon fill="#A67EE5" fill-rule="nonzero" points="112.460034 164.220609 98.5000345 164.220609 92.2000345 122.630609 106.160034 122.630609"></polygon>
          <polygon stroke="#FFFFFF" stroke-width="2" points="112.460034 164.220609 98.5000345 164.220609 92.2000345 122.630609 106.160034 122.630609"></polygon>
          <path d="M158.770034,108.360609 L102.880034,108.360609 C100.109289,108.360843 97.7564766,106.331382 97.3500345,103.590609 L86.4900345,31.3506095 C92.4099253,26.4484342 94.4920126,18.2873968 91.6441439,11.1483442 C88.7962753,4.00929149 81.668647,-0.477860675 74.0000345,0.0406094591 L18.9200345,0.0406094591 L18.6000345,102.910609 L34.3700345,126.260609 L81.5600345,134.650609 C82.9119665,135.145659 84.3403147,135.400609 85.7800345,135.400609 L158.780034,135.400609 C166.252447,135.400609 172.310034,129.343022 172.310034,121.870609 C172.310034,114.398197 166.252447,108.340609 158.780034,108.340609" fill="#A67EE5" fill-rule="nonzero"></path>
          <path d="M158.770034,108.360609 L102.880034,108.360609 C100.109289,108.360843 97.7564766,106.331382 97.3500345,103.590609 L86.4900345,31.3506095 C92.4099253,26.4484342 94.4920126,18.2873968 91.6441439,11.1483442 C88.7962753,4.00929149 81.668647,-0.477860675 74.0000345,0.0406094591 L18.9200345,0.0406094591 L18.6000345,102.910609 L34.3700345,126.260609 L81.5600345,134.650609 C82.9119665,135.145659 84.3403147,135.400609 85.7800345,135.400609 L158.780034,135.400609 C166.044619,135.118473 171.78765,129.145859 171.784962,121.875798 C171.782273,114.605737 166.034826,108.637373 158.770034,108.360609 Z" stroke="#FFFFFF" stroke-width="2"></path>
          <path d="M39.8600345,103.600609 L29.0000345,31.3606095 C35.3386873,26.1158376 37.2307737,17.1965675 33.5674182,9.83002297 C29.9040627,2.46347843 21.6500926,-1.41019512 13.6428262,0.479205822 C5.63555972,2.36860677 -0.016109045,9.52346589 7.10542736e-15,17.7506095 C0.0024200095,19.530038 0.268648521,21.2992781 0.790034496,23.0006095 L16.0900345,124.910609 C16.9908327,130.961466 22.1824989,135.443051 28.3000345,135.450609 L101.300034,135.450609 C108.626488,135.251375 114.462237,129.254772 114.462237,121.925609 C114.462237,114.596447 108.626488,108.599844 101.300034,108.400609 L45.3900345,108.400609 C42.620776,108.387364 40.2739181,106.358797 39.8600345,103.620609" fill="#A67EE5" fill-rule="nonzero"></path>
          <path d="M39.8600345,103.600609 L29.0000345,31.3606095 C35.3386873,26.1158376 37.2307737,17.1965675 33.5674182,9.83002297 C29.9040627,2.46347843 21.6500926,-1.41019512 13.6428262,0.479205822 C5.63555972,2.36860677 -0.016109045,9.52346589 7.10542736e-15,17.7506095 C0.0024200095,19.530038 0.268648521,21.2992781 0.790034496,23.0006095 L16.0900345,124.910609 C16.9908327,130.961466 22.1824989,135.443051 28.3000345,135.450609 L101.300034,135.450609 C108.626488,135.251375 114.462237,129.254772 114.462237,121.925609 C114.462237,114.596447 108.626488,108.599844 101.300034,108.400609 L45.3900345,108.400609 C42.6142469,108.385857 40.2650092,106.346736 39.8600345,103.600609 Z" stroke="#FFFFFF" stroke-width="2"></path>
          <path d="M83.7000345,95.7306095 L11.7000345,95.7306095 L9.5700345,81.5406095 L78.0400345,81.5406095 C83.5147931,81.5516445 87.9455645,85.9958425 87.9400397,91.4706095 C87.9345364,93.8155385 86.0349635,95.7151114 83.6900345,95.7206095" fill="#A67EE5" fill-rule="nonzero"></path>
          <path d="M83.7000345,95.7306095 L11.7000345,95.7306095 L9.5700345,81.5406095 L78.0400345,81.5406095 C83.5147931,81.5516445 87.9455645,85.9958425 87.9400397,91.4706095 C87.9400397,93.8155541 86.0449533,95.7196003 83.7000345,95.7306095 L83.7000345,95.7306095 Z" stroke="#FFFFFF" stroke-width="2"></path>
          <line x1="29.0000345" y1="31.3506095" x2="86.4900345" y2="31.3506095" stroke="#FFFFFF" stroke-width="2" stroke-linecap="round"></line>
      </g>
      <g id="leaves" transform="translate(0.000000, 66.570000)">
          <path d="M24.7,22.53 C30.9460744,30.8460081 36.1795913,39.8762585 40.29,49.43 C33.1260367,41.9937884 26.4203566,34.1293081 20.21,25.88 C14.008331,17.6019275 8.30812166,8.95978241 3.14,-3.55271368e-15 C11.1934227,6.62980661 18.4307947,14.1927932 24.7,22.53" fill="#36E69A" fill-rule="nonzero"></path>
          <path d="M26.46,42.92 C34.8582696,48.8058313 42.513856,55.6857859 49.26,63.41 C40.3276925,58.7169467 31.697526,53.4700459 23.42,47.7 C15.2248046,41.9694515 7.40235053,35.7235125 -3.55271368e-15,29 C9.36657708,32.5170793 18.2557614,37.1934756 26.46,42.92" fill="#36E69A" fill-rule="nonzero"></path>
          <path d="M39.18,34.01 C41.9473934,44.0000018 45.3134777,53.8144085 49.26,63.4 C49.0195321,53.0804287 47.5081397,42.8298294 44.76,32.88 C41.906485,22.6283446 37.858756,12.747321 32.7,3.44 C34.2426214,13.7503561 36.4031789,23.9587401 39.17,34.01" fill="#36E69A" fill-rule="nonzero"></path>
          <path d="M52.84,42.05 C52.8972629,52.3058972 53.5852282,62.5485654 54.9,72.72 C57.4180665,62.9024535 58.68147,52.8053054 58.66,42.67 C58.5951757,32.0936767 57.2521005,21.5639667 54.66,11.31 C53.3739526,21.5055756 52.749313,31.7737154 52.79,42.05" fill="#25B774" fill-rule="nonzero"></path>
          <path d="M28.6,58.09 C37.9342017,61.8657697 46.764766,66.7832083 54.89,72.73 C45.3121531,70.2827604 35.9052658,67.2094876 26.73,63.53 C17.6774448,59.8687818 8.86932352,55.6300614 0.36,50.84 C10.0508432,52.0457591 19.5457828,54.4959576 28.61,58.13" fill="#25B774" fill-rule="nonzero"></path>
          <path d="M33.58,72.36 C43.2005772,74.9073419 52.4606221,78.6604153 61.14,83.53 C51.4284226,82.3329244 41.8118787,80.4617415 32.36,77.93 C23.0257096,75.4232838 13.8660203,72.3065842 4.94,68.6 C14.6095425,68.6232438 24.2368391,69.8766405 33.59,72.33" fill="#25B774" fill-rule="nonzero"></path>
          <path d="M64.23,53.32 C62.5529084,63.3269444 61.5174622,73.4308952 61.13,83.57 C65.2762259,74.472167 68.240333,64.8808271 69.95,55.03 C71.6999297,44.7308328 72.1768413,34.2555703 71.37,23.84 C68.2920621,33.4850898 65.902723,43.3365185 64.22,53.32" fill="#25B774" fill-rule="nonzero"></path>
          <path d="M44.38,90.53 C53.8868808,93.4872359 62.9821886,97.6333791 71.45,102.87 C61.7948552,101.267008 52.2621169,98.9982627 42.92,96.08 C33.7010562,93.1911563 24.6816689,89.7003194 15.92,85.63 C25.5759565,86.0509258 35.1392559,87.6974531 44.38,90.53" fill="#068E4D" fill-rule="nonzero"></path>
          <path d="M75.79,72.82 C73.6992392,82.7498629 72.2495777,92.8039665 71.45,102.92 C75.9738871,93.9996119 79.3346535,84.5356938 81.45,74.76 C83.6246336,64.5435954 84.5347961,54.0985575 84.16,43.66 C80.688437,53.1704542 77.8947817,62.9148308 75.8,72.82" fill="#068E4D" fill-rule="nonzero"></path>
          <path d="M54.42,109.22 C63.7988333,112.573925 72.7161618,117.099789 80.96,122.69 C71.3777662,120.673502 61.9455223,118.000531 52.73,114.69 C43.6372321,111.41626 34.7683049,107.551345 26.18,103.12 C35.813353,103.939059 45.3030949,105.982176 54.42,109.2" fill="#068E4D" fill-rule="nonzero"></path>
          <path d="M86.52,92.79 C84.0192476,102.626367 82.1553805,112.613755 80.94,122.69 C85.8222853,113.959158 89.5692773,104.640406 92.09,94.96 C94.6927018,84.8304054 96.0361758,74.418482 96.09,63.96 C92.2218643,73.3314563 89.0238276,82.9656672 86.52,92.79" fill="#068E4D" fill-rule="nonzero"></path>
          <path d="M38.14,46.2 C61.3550177,80.6192524 80.4395535,117.650502 95,156.53" stroke="#36E69A" stroke-width="2" stroke-linecap="round" stroke-linejoin="round"></path>
          <animateTransform
            id="leavesRotate"
            attributeName="transform"
            type="rotate"
            values="0 111 235; 3 111 235; 0 111 235;"
            keyTimes="0; 0.5; 1"
            dur="1s"
            repeatCount="indefinite"
            additive="sum"
            begin="to.end"
          />
      </g>
      <line x1="17.55" y1="224.1" x2="241.04" y2="224.1" id="mountainLow" stroke="#FFFFFF" stroke-width="2" stroke-linecap="round"/>
      <defs>
        <rect id="windowMaskPath" x="186.5" y="44.5" width="51" height="72" stroke="white"/>
        <clipPath id="windowClip">
          <use xlink:href="#windowMaskPath"/>
        </clipPath>
      </defs>
      <g clip-path="url(#windowClip)">
        <g transform="translate(185.000000, 47.000000)">
          <g stroke="#FFFFFF" stroke-linecap="round" stroke-width="2" opacity="0" transform="translate(70, 0)">
            <g transform="translate(0, 24.000000) scale(0.4, 0.4)">
              <line x1="27.18" y1="37.34" x2="90.09" y2="37.34"></line>
              <path d="M0,27.08 L35.29,27.08 C35.29,20.2316691 40.8416691,14.68 47.69,14.68 C54.5383309,14.68 60.09,20.2316691 60.09,27.08 L78.02,27.08"></path>
              <line x1="217.19" y1="22.72" x2="256.97" y2="22.72"></line>
              <path d="M236.98,12.45 L209.62,12.45 C209.62,5.6016691 204.068331,0.05 197.22,0.05 C190.371669,0.05 184.82,5.6016691 184.82,12.45 L166.88,12.45"></path>
              <line x1="245.24" y1="12.45" x2="267.43" y2="12.45"></line>
            </g>

            <animate
              id="toClouds"
              attributeType="CSS"
              attributeName="opacity"
              from="0"
              to="1"
              dur="0.2s"
              fill="freeze"
              begin="to.end + 2s"
            />

            <animateTransform
              attributeName="transform"
              type="translate"
              values="30, 0; -200, 0"
              keyTimes="0; 1"
              dur="4s"
              additive="sum"
              begin="toClouds.end"
              repeatCount="indefinite"
            />
          </g>
        </g>
      </g>

      <animate
        id="to"
        attributeType="CSS"
        attributeName="opacity"
        from="0"
        to="1"
        dur="0.5s"
        fill="freeze"
        begin="from.end"
      />

      <animateTransform
        id="toTranslate"
        attributeName="transform"
        type="translate"
        from="-170 0"
        to="0 0"
        dur="0.5s"
        fill="freeze"
        begin="from.end"
        additive="sum"
      />
    </g>
  </g>
</svg>
