<svg width="260" height="253" viewBox="0 0 260 253" fill="none" xmlns="http://www.w3.org/2000/svg" xmlns:xlink="http://www.w3.org/1999/xlink">
  <g id="wrapper">
    <g id="topClosed">
      <path id="Vector" d="M180.64 181H37.44a11.618 11.618 0 00-11.57 11.61v19.75H192.2V192.6a11.62 11.62 0 00-11.56-11.61" fill="#A67EE5"/>
      <path id="Vector_2" d="M180.64 181H37.44a11.618 11.618 0 00-11.57 11.61v19.75H192.2V192.6a11.622 11.622 0 00-11.56-11.6z" stroke="#fff" stroke-width="2" stroke-miterlimit="10"/>
      <path id="Vector_3" d="M221.87 181H73.99a11.811 11.811 0 00-11.93 11.61v19.75h171.7V192.6a11.812 11.812 0 00-11.93-11.61" fill="#A67EE5"/>
      <path id="Vector_4" d="M221.87 181H73.99a11.811 11.811 0 00-11.93 11.61v19.75h171.7V192.6a11.81 11.81 0 00-11.89-11.6v0z" stroke="#fff" stroke-width="2" stroke-miterlimit="10"/>
      <path id="Vector_5" d="M233.5 202.35a5.342 5.342 0 005.26-6.369 5.341 5.341 0 00-9.679-1.94 5.346 5.346 0 00-.901 2.969 5.318 5.318 0 005.32 5.34z" fill="#A67EE5"/>
      <path id="Vector_6" d="M233.5 202.35c2.933 0 5.31-2.391 5.31-5.34s-2.377-5.34-5.31-5.34-5.31 2.391-5.31 5.34 2.377 5.34 5.31 5.34z" stroke="#fff" stroke-width="2" stroke-miterlimit="10"/>
      <path id="Vector_7" d="M232.38 192.6v9.75h-10.73a5.724 5.724 0 01-4.042-1.682 5.733 5.733 0 01-1.668-4.048V181h4.88a11.608 11.608 0 0111.56 11.61" fill="#A67EE5"/>
      <path id="Vector_8" d="M232.38 192.6v9.75h-10.73a5.724 5.724 0 01-4.042-1.682 5.733 5.733 0 01-1.668-4.048V181h4.88a11.61 11.61 0 0111.56 11.6z" stroke="#fff" stroke-width="2" stroke-miterlimit="10"/>

      <set
        id="topClosedOpacityOut"
        attributeName="opacity"
        to="0"
        begin="wrapperOpacityIn.end"
      />
    </g>
    <g id="topOpened" opacity="0">
      <path id="Vector_9" d="M208.69 154.3a5.693 5.693 0 005.581-6.8 5.688 5.688 0 00-4.471-4.471 5.698 5.698 0 00-5.841 2.42 5.693 5.693 0 00.708 7.184 5.686 5.686 0 004.023 1.667" fill="#A67EE5"/>
      <path id="Vector_10" d="M208.69 154.3a5.69 5.69 0 100-11.38 5.69 5.69 0 000 11.38z" stroke="#fff" stroke-width="2" stroke-miterlimit="10"/>
      <path id="Vector_11" d="M195.06 132.67H21.95a12 12 0 00-12 11.9v53.62a13 13 0 0013 13h184v-66.62a12 12 0 00-11.94-11.9" fill="#A67EE5"/>
      <path id="Vector_12" d="M195.06 132.67H21.95a12 12 0 00-12 11.9v53.62a13 13 0 0013 13h184v-66.62a12 12 0 00-11.89-11.9v0z" stroke="#fff" stroke-width="2" stroke-miterlimit="10"/>
      <path id="Vector_13" d="M25 211.19v-63.51a15.001 15.001 0 0115-15h.5" stroke="#fff" stroke-width="2"/>

      <set
        id="topOpenedOpacityIn"
        attributeName="opacity"
        to="1"
        begin="wrapperOpacityIn.end"
      />
    </g>
    <g id="flowerRight" opacity="0">
      <g>
        <path id="Vector_14" d="M135.49 199.99s8.3-74.59 39.71-90" stroke="#fff" stroke-width="2" stroke-linecap="round" stroke-linejoin="round"/>
        <path id="Vector_15" d="M172.71 109.31l9.27-24.49a21.999 21.999 0 018.72 3 7.87 7.87 0 019.72 12.33 22.132 22.132 0 01.86 9.18l-26 3.3a2.457 2.457 0 01-1.234-.163 2.457 2.457 0 01-1.492-1.889 2.45 2.45 0 01.126-1.238" fill="#3B7BF2"/>
        <path id="Vector_16" d="M133 209.82s6.89-44.68 37.95-56.53" stroke="#fff" stroke-width="2" stroke-linecap="round" stroke-linejoin="round"/>
        <path id="Vector_17" d="M165.61 154.19l9-16.47a16.659 16.659 0 016.13 2.93 5.93 5.93 0 014-.42 5.67 5.67 0 014.26 6.85 5.54 5.54 0 01-2.29 3.23 15.098 15.098 0 01-.21 6.58l-19.34-.11a1.764 1.764 0 01-1.539-.832 1.758 1.758 0 01-.061-1.748" fill="#3B7BF2"/>

        <animateTransform
          id="flowerRightRotateIdle"
          attributeName="transform"
          type="rotate"
          values="0 129 209; -5 129 209; 0 129 209; 3 129 209; 0 129 209;"
          keySplines="0.42, 0.0, 0.58, 1.0; 0.42, 0.0, 0.58, 1.0; 0.42, 0.0, 0.58, 1.0; 0.42, 0.0, 0.58, 1.0; 0.42, 0.0, 0.58, 1.0;"
          keyTimes="0; 0.3; 0.5; 0.7; 1"
          dur="2s"
          additive="sum"
          begin="flowerRightRotateIn.end"
        />
      </g>
      <set
        id="flowerRightOpacityIn"
        attributeName="opacity"
        to="1"
        begin="wrapperOpacityIn.end"
      />

      <animateTransform
        id="flowerRightRotateIn"
        attributeName="transform"
        type="rotate"
        values="24 129 209; -7 129 209; 0 129 209;"
        keySplines="0.42, 0.0, 0.58, 1.0; 0.42, 0.0, 0.58, 1.0; 0.42, 0.0, 0.58, 1.0;"
        keyTimes="0; 0.5; 1"
        dur="1.5s"
        additive="sum"
        fill="freeze"
        begin="wrapperOpacityIn.end"
      />
    </g>
    <g id="balloonGroup" opacity="0">
      <defs>
        <rect id="balloonStringMaskPath" x="46" y="39" width="29" height="171" stroke="white"/>
        <clipPath id="balloonStringClip">
          <use xlink:href="#balloonStringMaskPath"/>
        </clipPath>
      </defs>

      <g clip-path="url(#balloonStringClip)">
        <g>
          <path id="balloonString" d="M62.41 88.9v122.31" stroke="#fff" stroke-width="2" stroke-miterlimit="10" stroke-linecap="round">
            <animateTransform
              id="balloonStringTranslate"
              attributeName="transform"
              type="translate"
              values="0 208; 0 0; 0 20"
              keyTimes="0; 0.9; 1"
              dur="1s"
              fill="freeze"
              begin="wrapperOpacityIn.end"
            />
          </path>

          <animateTransform
            id="balloonStringTranslateIdle"
            attributeName="transform"
            type="translate"
            values="0 10; 0 10; 0 10; 0 0"
            keyTimes="0; 0.3; 0.6; 1"
            dur="2s"
            additive="sum"
            begin="balloonStringTranslate.end"
          />
        </g>

        <animateTransform
          id="balloonStringRotate"
          attributeName="transform"
          type="rotate"
          values="0 0 208; 0 60 208; 0 60 208; 0 4 208; 0 60 208; -4 60 208; -3 60 208; -2 60 208; 0 60 208;"
          keySplines="0.42, 0.0, 0.58, 1.0; 0.42, 0.0, 0.58, 1.0; 0.42, 0.0, 0.58, 1.0; 0.42, 0.0, 0.58, 1.0; 0.42, 0.0, 0.58, 1.0; 0.42, 0.0, 0.58, 1.0; 0.42, 0.0, 0.58, 1.0; 0.42, 0.0, 0.58, 1.0; 0.42, 0.0, 0.58, 1.0"
          keyTimes="0; 0.1; 0.2; 0.5; 0.6; 0.7; 0.8; 0.85; 1"
          dur="4s"
          additive="sum"
          fill="freeze"
          begin="wrapperOpacityIn.end"
        />
      </g>

      <g id="balloon">
        <g>
          <path id="Vector_19" d="M62.5 1.61A32.91 32.91 0 0195.4 34.5c0 18.17-15.09 48.89-33.25 48.89S29.6 52.66 29.6 34.5A32.91 32.91 0 0162.5 1.61zm0-1.61A34.54 34.54 0 0028 34.5c0 9.51 3.8 22.1 9.68 32.07 7 11.88 15.68 18.42 24.46 18.42 8.78 0 17.6-6.54 24.81-18.4C93.05 56.59 97 43.95 97 34.5A34.54 34.54 0 0062.5 0" fill="#fff"/>
          <path id="Vector_20" d="M50.82 34.58c0-18.16 5.23-32.89 11.68-32.89a32.91 32.91 0 00-32.9 32.89c0 18.17 14.38 48.89 32.55 48.89h.17c-6.43-.19-11.5-30.77-11.5-48.89z" fill="#76ABFF"/>
          <path id="Vector_21" d="M95.4 34.58A32.91 32.91 0 0062.5 1.69c6.45 0 11.68 14.73 11.68 32.89S68.89 83.06 62.5 83.45c18-.39 32.9-30.82 32.9-48.87" fill="#1553B7"/>
          <path id="Vector_22" d="M74.18 34.58c0-18.16-5.23-32.89-11.68-32.89-6.45 0-11.68 14.73-11.68 32.89s5.07 48.69 11.5 48.89h.18c6.39-.4 11.68-30.83 11.68-48.88" fill="#3B7BF2"/>
          <path id="Vector_23" d="M55.3 27.55a5.7 5.7 0 105.7 5.7 5.39 5.39 0 00-5.7-5.7zm0 8c-1.86 0-3.06-.93-3.06-2.29 0-1.36 1.21-2.29 3.06-2.29s3.07.93 3.07 2.29c0 1.36-1.25 2.29-3.07 2.29z" fill="#fff"/>
          <path id="Vector_24" d="M69.5 27.55a1.78 1.78 0 011.46 2.8L57.63 49.69a1.79 1.79 0 01-2.94-2l13.34-19.34a1.768 1.768 0 011.47-.77" fill="#fff"/>
          <path id="Vector_25" d="M70.97 39.07a5.7 5.7 0 105.7 5.7 5.402 5.402 0 00-5.7-5.7zm0 8c-1.86 0-3.06-.93-3.06-2.29 0-1.36 1.21-2.29 3.06-2.29s3.07.9 3.07 2.29c0 1.39-1.21 2.29-3.07 2.29z" fill="#fff"/>
          <path id="Vector_18" d="M61.34 84.06l-2.19 3.79a1.341 1.341 0 001.17 2h4.37a1.34 1.34 0 001.16-2l-2.18-3.79a1.35 1.35 0 00-2.33 0z" fill="#fff"/>

          <animateTransform
            id="balloonTranslateIdle"
            attributeName="transform"
            type="translate"
            values="0 10; 0 20; 0 10; 0 20; 0 0"
            keySplines="0.42, 0.0, 0.58, 1.0; 0.42, 0.0, 0.58, 1.0; 0.42, 0.0, 0.58, 1.0; 0.42, 0.0, 0.58, 1.0; 0.42, 0.0, 0.58, 1.0;"
            keyTimes="0; 0.2; 0.3; 0.6; 1"
            dur="2s"
            additive="sum"
            begin="balloonTranslate.end"
          />
        </g>

        <animateTransform
          id="balloonTranslate"
          attributeName="transform"
          type="translate"
          values="0 208; 0 0; 0 20"
          keyTimes="0; 0.9; 1"
          dur="1s"
          fill="freeze"
          begin="wrapperOpacityIn.end"
        />

        <animateTransform
          id="balloonRotate"
          attributeName="transform"
          type="rotate"
          values="90 60 84; -10 60 84; -15 60 84; 0 60 113; 10 60 113; -16 60 113; -12 60 113; -10 60 113; 0 60 113;"
          keySplines="0.42, 0.0, 0.58, 1.0; 0.42, 0.0, 0.58, 1.0; 0.42, 0.0, 0.58, 1.0; 0.42, 0.0, 0.58, 1.0; 0.42, 0.0, 0.58, 1.0; 0.42, 0.0, 0.58, 1.0; 0.42, 0.0, 0.58, 1.0; 0.42, 0.0, 0.58, 1.0; 0.42, 0.0, 0.58, 1.0"
          keyTimes="0; 0.1; 0.2; 0.5; 0.6; 0.7; 0.8; 0.85; 1"
          dur="4s"
          additive="sum"
          fill="freeze"
          begin="wrapperOpacityIn.end"
        />
      </g>
      <set
        id="balloonGroupOpacityIn"
        attributeName="opacity"
        to="1"
        begin="wrapperOpacityIn.end + 0.2s"
      />
    </g>

    <g id="flowerBottom" opacity="0">
      <g>
        <path id="Vector_48" d="M138.55 186.96c2.3 9.1-2.27 18.12-2.27 18.12s-8.32-5.74-10.63-14.85c-2.31-9.11 2.27-18.12 2.27-18.12s8.32 5.75 10.63 14.85z" fill="#3B7BF2"/>
        <path id="Vector_49" d="M154.39 207.35c-9.11 2.31-18.12-2.27-18.12-2.27s5.74-8.32 14.85-10.63c9.11-2.31 18.12 2.27 18.12 2.27s-5.75 8.32-14.85 10.63z" fill="#3B7BF2"/>
        <path id="Vector_50" d="M143.32 193.86a144.083 144.083 0 00-10.31 16.61" stroke="#3B7BF2" stroke-width="2" stroke-linecap="round" stroke-linejoin="round"/>
        <path id="Vector_51" d="M158.45 186.38c-6.17 7.08-16.19 8.44-16.19 8.44s0-10.11 6.16-17.18 16.19-8.45 16.19-8.45 0 10.11-6.16 17.19z" fill="#76ABFF"/>

        <animateTransform
          id="flowerBottomRotateIdle"
          attributeName="transform"
          type="rotate"
          values="0 129 209; -5 129 209; 0 129 209; 7 129 209; 0 129 209;"
          keySplines="0.42, 0.0, 0.58, 1.0; 0.42, 0.0, 0.58, 1.0; 0.42, 0.0, 0.58, 1.0; 0.42, 0.0, 0.58, 1.0; 0.42, 0.0, 0.58, 1.0;"
          keyTimes="0; 0.3; 0.5; 0.7; 1"
          dur="2s"
          repeatCount="indefinite"
          additive="sum"
          begin="flowerBottomRotateIn.end"
        />
      </g>
      <set
        id="flowerBottomOpacityIn"
        attributeName="opacity"
        to="1"
        begin="wrapperOpacityIn.end"
      />

      <animateTransform
        id="flowerBottomRotateIn"
        attributeName="transform"
        type="rotate"
        values="30 129 209; -10 129 209; 0 129 209;"
        keySplines="0.42, 0.0, 0.58, 1.0; 0.42, 0.0, 0.58, 1.0; 0.42, 0.0, 0.58, 1.0;"
        keyTimes="0; 0.5; 1"
        dur="1s"
        additive="sum"
        fill="freeze"
        begin="wrapperOpacityIn.end"
      />
    </g>
    <g id="birdGroup" fill="#fff">
      <g id="birdGroupAppear" opacity="0">
        <defs>
          <rect id="birdWingMaskPath" x="232" y="89" width="29" height="23" stroke="white"/>
          <clipPath id="birdWingClip">
            <use xlink:href="#birdWingMaskPath"/>
          </clipPath>
        </defs>

        <g clip-path="url(#birdWingClip)">
          <path id="birdWing" d="M233.96 105.99a4.887 4.887 0 013.8-4.8l21.07-5.4c-7.78 14.84-19.18 15.07-20 15.07a4.9 4.9 0 01-4.85-4.9">
            <animateTransform
              id="birdWingTranslateIdle"
              attributeName="transform"
              type="translate"
              values="-10 3; -7 4; -30 7; -10 3"
              keyTimes="0; 0.5; 0.7; 1"
              calcMode="discrete"
              dur="0.2s"
              repeatCount="indefinite"
              begin="birdGroupTranslate.end - 0.2s"
            />

            <animateTransform
              id="birdWingRotateIdle"
              attributeName="transform"
              type="rotate"
              values="0 235 107; -20 235 107; -20 235 107; 0 235 107"
              keyTimes="0; 0.5; 0.7; 1"
              calcMode="discrete"
              dur="0.2s"
              repeatCount="indefinite"
              additive="sum"
              begin="birdGroupTranslate.end - 0.2s"
            />
          </path>
        </g>

        <path id="birdBody" d="M217 92.05h10.76a4.651 4.651 0 014.41-2.9 3.91 3.91 0 013.48 1.76c.55.81 1.009 1.68 1.37 2.59.63 1.57 4 15.8 5.89 19.16 1.1 2 4.39 7.16 4.39 7.16.203.349.309.746.31 1.15v9.22s-3.11-1.08-3.11-3.91v-6.53c-1.91.27-6-1.65-8.33-2.88a12.818 12.818 0 01-6.36-6.76 12.328 12.328 0 01-.11-9.16 7.13 7.13 0 00.79-2.91c-.06-1.14-1.39-2.72-2.18-4.05L217 92.05z"/>

        <set
          id="birdGroupOpacityIn"
          attributeName="opacity"
          to="1"
          begin="wrapperOpacityIn.end + 0.7s"
        />

        <animateTransform
          id="birdGroupTranslate"
          attributeName="transform"
          type="translate"
          values="-137 208; 0 0"
          keyTimes="0; 1"
          dur="1s"
          fill="freeze"
          begin="wrapperOpacityIn.end"
        />
      </g>
      <animateTransform
        id="birdGroupTranslateIdle"
        attributeName="transform"
        type="translate"
        values="-10 7; 0 0; -10 3; 0 0; -10 7"
        keyTimes="0; 0.2; 0.5; 0.7; 1"
        dur="3s"
        repeatCount="indefinite"
        begin="birdGroupTranslate.end - 0.2s"
      />

      <animateTransform
        id="birdGroupRotateIdle"
        attributeName="transform"
        type="rotate"
        values="-5 236 111; -20 236 111; -10 236 111; 0 236 111; -5 236 111;"
        keyTimes="0; 0.1; 0.5; 0.7; 1"
        dur="2s"
        repeatCount="indefinite"
        additive="sum"
        begin="birdGroupTranslate.end - 0.2s"
      />
    </g>
    <g id="bottom">
      <path id="Vector_26" d="M235.05 240.81a5.723 5.723 0 005.696-3.09 5.72 5.72 0 10-10.816-2.6 5.432 5.432 0 005.12 5.69z" fill="#A67EE5"/>
      <path id="Vector_27" d="M235.05 240.8c2.828 0 5.12-2.548 5.12-5.69 0-3.143-2.292-5.69-5.12-5.69-2.828 0-5.12 2.547-5.12 5.69 0 3.142 2.292 5.69 5.12 5.69z" stroke="#fff" stroke-width="2" stroke-miterlimit="10"/>
      <path id="Vector_28" d="M184.98 251.05h-148a11.847 11.847 0 01-11.95-11.67v-28.19h171.89v28.17a11.843 11.843 0 01-11.94 11.67" fill="#A67EE5"/>
      <path id="Vector_29" d="M184.98 251.05h-148a11.847 11.847 0 01-11.95-11.67v-28.19h171.89v28.17a11.843 11.843 0 01-11.94 11.69v0z" stroke="#fff" stroke-width="2" stroke-miterlimit="10"/>
      <path id="Vector_30" d="M221.48 251.05h-147a11.811 11.811 0 01-11.87-11.67v-28.19h170.73v28.17a11.79 11.79 0 01-11.86 11.67" fill="#A67EE5"/>
      <path id="Vector_31" d="M221.48 251.05h-147a11.811 11.811 0 01-11.87-11.67v-28.19h170.73v28.17a11.79 11.79 0 01-11.86 11.69z" stroke="#fff" stroke-width="2" stroke-miterlimit="10"/>
      <path id="Vector_32" d="M169.76 236.26h-34.51a4.271 4.271 0 01-4.35-4.16v-11.7a1.25 1.25 0 01.381-.875 1.236 1.236 0 01.889-.345h2.88a1.253 1.253 0 011.27 1.22v10a1.33 1.33 0 001.35 1.29h29.71a1.332 1.332 0 001.35-1.29v-10a1.25 1.25 0 01.381-.875 1.236 1.236 0 01.889-.345h2.88a1.253 1.253 0 011.27 1.22v11.69a4.272 4.272 0 01-4.35 4.16" fill="#A67EE5"/>
      <path id="Vector_33" d="M169.76 236.26h-34.51a4.271 4.271 0 01-4.35-4.16v-11.7a1.25 1.25 0 01.381-.875 1.236 1.236 0 01.889-.345h2.88a1.253 1.253 0 011.27 1.22v10a1.33 1.33 0 001.35 1.29h29.71a1.332 1.332 0 001.35-1.29v-10a1.25 1.25 0 01.381-.875 1.236 1.236 0 01.889-.345h2.88a1.253 1.253 0 011.27 1.22v11.69a4.264 4.264 0 01-1.328 2.998 4.278 4.278 0 01-3.062 1.172v0z" stroke="#fff" stroke-width="2" stroke-miterlimit="10"/>
      <path id="Vector_34" d="M102.44 204.38h-9.1v12.52h9.1v-12.52z" fill="#A67EE5"/>
      <path id="Vector_35" d="M102.44 204.38h-9.1v12.52h9.1v-12.52z" stroke="#fff" stroke-width="2" stroke-miterlimit="10"/>
      <path id="Vector_36" d="M211.71 204.38h-9.1v12.52h9.1v-12.52z" fill="#A67EE5"/>
      <path id="Vector_37" d="M211.71 204.38h-9.1v12.52h9.1v-12.52z" stroke="#fff" stroke-width="2" stroke-miterlimit="10"/>
      <path id="Vector_38" d="M233.34 239.3v-9.87h-10.4a5.67 5.67 0 00-5.53 5.8v15.82h4.73c6.16 0 11.2-5.29 11.2-11.75" fill="#A67EE5"/>
      <path id="Vector_39" d="M233.34 239.3v-9.87h-10.4a5.67 5.67 0 00-5.53 5.8v15.82h4.73c6.16 0 11.2-5.28 11.2-11.75z" stroke="#fff" stroke-width="2" stroke-miterlimit="10"/>
      <path id="Vector_40" d="M54.76 223.73H33.98a.998.998 0 01-1-1v-2.54a1 1 0 011-1h20.78a.998.998 0 011 1v2.58a.999.999 0 01-1 1" fill="#A67EE5"/>
      <path id="Vector_41" d="M54.76 223.73H33.98a.998.998 0 01-1-1v-2.54a1 1 0 011-1h20.78a.998.998 0 011 1v2.58a1 1 0 01-1 .96z" stroke="#fff" stroke-width="2" stroke-miterlimit="10"/>
    </g>
    <g id="flowerLeft" opacity="0">
      <g>
        <path id="Vector_42" d="M96.53 126.35c24.1 32.45 35.81 84 35.81 84" stroke="#3B7BF2" stroke-width="2" stroke-linecap="round" stroke-linejoin="round"/>
        <path id="Vector_43" d="M80.49 118.41c6.54 7.51 17.16 9 17.16 9s0-10.72-6.53-18.22c-6.53-7.5-17.17-9-17.17-9s0 10.72 6.54 18.22" fill="#76ABFF"/>
        <path id="Vector_44" d="M107.93 128.73c-2.69 9.58 1.91 19.27 1.91 19.27s9-5.86 11.67-15.45-1.91-19.27-1.91-19.27-9 5.86-11.67 15.45z" fill="#3B7BF2"/>
        <path id="Vector_45" d="M90.58 149.9c9.59 2.7 19.26-1.91 19.26-1.91s-5.86-9-15.45-11.67-19.26 1.87-19.26 1.87 5.87 9 15.45 11.67" fill="#3B7BF2"/>
        <path id="Vector_46" d="M120.86 154.71c-3.41 9.36.47 19.35.47 19.35s9.39-5.18 12.79-14.53c3.4-9.35-.47-19.34-.47-19.34s-9.39 5.18-12.79 14.53" fill="#1553B7"/>
        <path id="Vector_47" d="M101.98 174.54c9.36 3.4 19.35-.47 19.35-.47s-5.18-9.39-14.54-12.79c-9.36-3.4-19.35.47-19.35.47s5.18 9.39 14.54 12.79z" fill="#1553B7"/>

        <animateTransform
          id="flowerLeftRotateIdle"
          attributeName="transform"
          type="rotate"
          values="0 129 209; -3 129 209; 0 129 209; 3 129 209; 0 129 209;"
          keySplines="0.42, 0.0, 0.58, 1.0; 0.42, 0.0, 0.58, 1.0; 0.42, 0.0, 0.58, 1.0; 0.42, 0.0, 0.58, 1.0; 0.42, 0.0, 0.58, 1.0;"
          keyTimes="0; 0.3; 0.5; 0.7; 1"
          dur="2s"
          repeatCount="indefinite"
          additive="sum"
          begin="flowerLeftRotateIn.end + 0.2s"
        />
      </g>
      <set
        id="flowerLeftOpacityIn"
        attributeName="opacity"
        to="1"
        begin="wrapperOpacityIn.end"
      />

      <animateTransform
        id="flowerLeftRotateIn"
        attributeName="transform"
        type="rotate"
        values="20 129 209; -10 129 209; 0 129 209;"
        keySplines="0.42, 0.0, 0.58, 1.0; 0.42, 0.0, 0.58, 1.0; 0.42, 0.0, 0.58, 1.0;"
        keyTimes="0; 0.3; 1"
        dur="1s"
        additive="sum"
        fill="freeze"
        begin="wrapperOpacityIn.end"
      />
    </g>
    <path id="floor" d="M1 251.19h257.52" stroke="#fff" stroke-width="2" stroke-linecap="round" stroke-linejoin="round"/>

    <animateTransform
      id="wrapperTranslate"
      attributeName="transform"
      type="translate"
      values="100 0; 0 0"
      keyTimes="0; 1"
      dur="0.5s"
      fill="freeze"
    />
    <animate
      id="wrapperOpacityIn"
      attributeType="CSS"
      attributeName="opacity"
      from="0"
      to="1"
      dur="0.8s"
      fill="freeze"
    />
  </g>
</svg>
